<svg xmlns="http://www.w3.org/2000/svg" xmlns:xlink="http://www.w3.org/1999/xlink" width="1920" zoomAndPan="magnify" viewBox="0 0 1200 809.999993" height="1080" preserveAspectRatio="xMidYMid meet" version="1.0"><defs><clipPath id="f0a4dd9cb3"><path d="M 369.140625 24.433594 L 754 24.433594 L 754 725 L 369.140625 725 Z M 369.140625 24.433594 " clip-rule="nonzero"/></clipPath></defs><g clip-path="url(#f0a4dd9cb3)"><path fill="#f48ee3" d="M 703.609375 724.210938 L 419.105469 724.210938 C 391.585938 724.210938 369.277344 701.914062 369.277344 674.378906 L 369.277344 74.265625 C 369.277344 46.726562 391.570312 24.433594 419.105469 24.433594 L 703.625 24.433594 C 731.132812 24.433594 753.441406 46.726562 753.441406 74.265625 L 753.441406 674.410156 C 753.425781 701.914062 731.132812 724.210938 703.609375 724.210938 Z M 703.609375 724.210938 " fill-opacity="1" fill-rule="nonzero"/></g><path fill="#3c59d8" d="M 736.601562 88.457031 L 736.601562 652.691406 C 736.601562 678.574219 716.253906 699.53125 691.148438 699.53125 L 431.554688 699.53125 C 406.449219 699.53125 386.097656 678.558594 386.097656 652.691406 L 386.097656 88.457031 C 386.097656 62.578125 406.449219 41.621094 431.554688 41.621094 L 504.390625 41.621094 C 502.660156 48.460938 502.902344 55.722656 508.769531 60.785156 C 516.824219 67.714844 531.289062 66.164062 541.09375 66.5 C 555.847656 67 570.589844 66.347656 585.347656 66.664062 C 593.902344 66.847656 602.535156 68.109375 611.058594 66.652344 C 618.1875 65.433594 624.738281 62.242188 626.773438 54.796875 C 628.019531 50.191406 627.441406 45.542969 625.375 41.605469 L 691.179688 41.605469 C 716.253906 41.621094 736.601562 62.59375 736.601562 88.457031 Z M 736.601562 88.457031 " fill-opacity="1" fill-rule="nonzero"/><path fill="#ffd769" d="M 925.089844 728.554688 C 922.660156 732.019531 918.90625 733.417969 914.953125 734.757812 C 909.363281 736.65625 903.570312 737.8125 897.707031 738.464844 C 897.628906 738.480469 897.554688 738.480469 897.492188 738.496094 C 897.707031 734.726562 895.410156 730.910156 890.425781 730.988281 C 876.960938 731.183594 863.542969 736.519531 851.8125 742.78125 C 846.734375 742.734375 841.660156 742.703125 836.566406 742.703125 C 821.460938 742.6875 806.007812 743.601562 790.992188 741.777344 C 782.453125 740.742188 767.785156 738.238281 771.480469 726.109375 C 774.730469 715.410156 787.40625 710.089844 796.828125 706.351562 C 808.742188 701.640625 821.476562 699.074219 833.726562 695.351562 C 840.550781 693.269531 855.003906 690.273438 856.371094 681.824219 C 856.597656 680.398438 857.234375 679.363281 858.085938 678.632812 C 858.117188 675.59375 860.109375 672.738281 864.242188 672.890625 C 864.621094 672.90625 865.015625 672.917969 865.398438 672.933594 C 866.277344 672.964844 867.054688 673.164062 867.738281 673.453125 C 874.332031 674.667969 880.808594 676.75 887.507812 677.660156 C 894.011719 678.542969 901.65625 676.808594 907.886719 678.679688 C 913.738281 680.441406 915.378906 685.714844 916.519531 691.066406 C 918.128906 698.648438 921.078125 705.53125 924.253906 712.597656 C 926.71875 718.085938 928.921875 723.117188 925.089844 728.554688 Z M 1063.871094 700 C 1062.488281 692.539062 1057.714844 686.734375 1053.734375 680.503906 C 1050.375 675.246094 1045.996094 667.417969 1039.128906 666.429688 C 1033.050781 665.566406 1025.191406 670.730469 1019.3125 672.054688 C 1009.570312 674.226562 1000.542969 674.578125 990.589844 674.5 C 987.734375 674.484375 985.789062 676.003906 984.785156 678.011719 C 983.828125 678.285156 982.945312 678.769531 982.230469 679.425781 C 978.554688 679.851562 978.449219 685.425781 981.957031 686.109375 C 982.019531 686.171875 982.050781 686.230469 982.109375 686.292969 C 992.65625 696.414062 965.378906 710.503906 958.675781 714.664062 C 946.488281 722.25 932.371094 728.675781 922.839844 739.710938 C 916.230469 747.371094 910.183594 761.167969 915.394531 771.167969 C 920.714844 781.382812 935.894531 779.710938 945.058594 777.855469 C 971.320312 772.519531 995.117188 762.71875 1018.523438 750.378906 C 1021.851562 747.203125 1025.253906 744.070312 1028.78125 741.109375 C 1031.789062 738.570312 1035.589844 737.917969 1039.191406 738.601562 C 1052.820312 729.679688 1067 716.792969 1063.871094 700 Z M 410.398438 197.421875 C 422.769531 197.453125 434.5 197.085938 446.796875 195.808594 C 460.398438 194.398438 474 197.101562 487.644531 195.734375 C 514.953125 193.015625 543.191406 193.574219 570.636719 194.441406 C 583.25 194.835938 595.5 192.632812 608.066406 192.558594 C 622.09375 192.464844 636.121094 192.679688 650.148438 192.574219 C 655.890625 192.527344 661.574219 191.738281 667.289062 192.558594 C 672.667969 193.316406 677.925781 194.261719 683.382812 194.320312 C 685.980469 194.351562 688.851562 193.742188 691.421875 194.09375 C 693.824219 194.425781 696.011719 195.703125 698.382812 196.128906 C 702.804688 196.917969 707.742188 197.558594 712.363281 197.738281 C 712.46875 197.753906 712.574219 197.769531 712.683594 197.785156 C 713.167969 197.800781 713.65625 197.816406 714.140625 197.816406 C 721.148438 197.984375 721.222656 187.222656 714.230469 186.949219 C 709.21875 186.753906 702.578125 186.023438 697.820312 184.550781 C 693.183594 183.121094 689.171875 183.378906 684.371094 183.425781 C 678.308594 183.484375 672.578125 182.148438 666.605469 181.480469 C 661.558594 180.917969 656.542969 181.570312 651.5 181.691406 C 637.546875 182.011719 623.566406 181.632812 609.617188 181.707031 C 595.710938 181.785156 582.140625 183.878906 568.1875 183.546875 C 542.203125 182.921875 515.105469 181.769531 489.269531 184.761719 C 475.167969 186.402344 461.140625 183.636719 447.070312 185.140625 C 434.363281 186.496094 422.328125 187.332031 409.488281 187.359375 C 402.996094 187.359375 403.925781 197.40625 410.398438 197.421875 Z M 567.367188 146.601562 C 565.789062 141.890625 571.015625 133.441406 573.203125 129.429688 C 573.949219 128.0625 574.738281 126.710938 575.53125 125.371094 C 577.613281 121.359375 579.785156 117.410156 581.972656 113.503906 C 585.589844 107.042969 589.554688 99.398438 594.664062 93.988281 C 598.902344 89.507812 604.648438 90.417969 610.132812 92.210938 C 619.660156 93.441406 628.566406 98.351562 634.964844 105.234375 C 635.375 105.675781 635.632812 106.195312 635.800781 106.726562 C 636.136719 107.242188 636.410156 107.773438 636.574219 108.335938 C 638.15625 113.714844 612.488281 163.652344 605.300781 165.339844 C 604.539062 165.523438 603.839844 165.523438 603.203125 165.386719 C 602.882812 165.417969 602.550781 165.429688 602.199219 165.417969 C 600.527344 165.371094 592.550781 160.308594 590.558594 159.367188 C 586.972656 157.664062 583.460938 155.734375 579.816406 154.140625 C 575.863281 152.4375 568.949219 151.328125 567.367188 146.601562 Z M 458.664062 132.652344 C 447.691406 132.941406 436.308594 132.558594 425.351562 133.515625 C 425.292969 128.882812 425.472656 124.203125 426.476562 120.054688 C 427.859375 114.292969 433.558594 112.636719 439.484375 111.890625 C 448.769531 108.914062 459.5 109.414062 469.027344 112.726562 C 469.636719 112.941406 470.152344 113.273438 470.59375 113.683594 C 471.1875 113.988281 471.71875 114.355469 472.160156 114.78125 C 473.632812 116.164062 475.078125 123.394531 476.109375 132.53125 C 470.304688 132.394531 464.46875 132.5 458.664062 132.652344 Z M 476.566406 136.753906 C 477.191406 143.351562 477.585938 150.539062 477.660156 157.074219 C 460.550781 157.164062 443.421875 157.453125 426.324219 157.773438 C 426.308594 157.117188 426.292969 156.449219 426.28125 155.78125 C 425.976562 151.375 425.792969 146.96875 425.640625 142.605469 C 425.582031 140.933594 425.503906 139.1875 425.445312 137.421875 C 435.03125 138.242188 445.03125 137.121094 454.5625 136.847656 C 461.902344 136.664062 469.242188 136.570312 476.566406 136.753906 Z M 477.660156 160.992188 C 477.570312 169.777344 476.765625 176.722656 474.925781 178.226562 C 474.332031 178.714844 473.695312 179.003906 473.054688 179.152344 C 472.78125 179.304688 472.492188 179.472656 472.160156 179.609375 C 470.625 180.277344 460.65625 179.246094 458.34375 179.277344 C 454.167969 179.320312 449.941406 179.109375 445.792969 179.277344 C 441.308594 179.457031 434.441406 181.433594 430.445312 177.953125 C 426.644531 174.640625 426.570312 165.71875 426.402344 161.023438 C 443.484375 161.28125 460.578125 161.117188 477.660156 160.992188 Z M 529.542969 132.652344 C 518.570312 132.941406 507.1875 132.558594 496.230469 133.515625 C 496.171875 128.882812 496.351562 124.203125 497.355469 120.054688 C 498.738281 114.292969 504.4375 112.636719 510.363281 111.890625 C 519.648438 108.914062 530.378906 109.414062 539.90625 112.726562 C 540.515625 112.941406 541.03125 113.273438 541.472656 113.683594 C 542.066406 113.988281 542.597656 114.355469 543.039062 114.78125 C 544.511719 116.164062 545.957031 123.394531 546.988281 132.53125 C 541.167969 132.394531 535.347656 132.5 529.542969 132.652344 Z M 547.429688 136.753906 C 548.054688 143.351562 548.449219 150.539062 548.523438 157.074219 C 531.414062 157.164062 514.285156 157.453125 497.1875 157.773438 C 497.171875 157.117188 497.160156 156.449219 497.144531 155.78125 C 496.839844 151.375 496.65625 146.96875 496.503906 142.605469 C 496.445312 140.933594 496.367188 139.1875 496.308594 137.421875 C 505.898438 138.242188 515.894531 137.121094 525.425781 136.847656 C 532.78125 136.664062 540.105469 136.570312 547.429688 136.753906 Z M 548.523438 160.992188 C 548.433594 169.777344 547.628906 176.722656 545.789062 178.226562 C 545.195312 178.714844 544.558594 179.003906 543.917969 179.152344 C 543.644531 179.304688 543.355469 179.472656 543.023438 179.609375 C 541.488281 180.277344 531.519531 179.246094 529.207031 179.277344 C 525.03125 179.320312 520.804688 179.109375 516.65625 179.277344 C 512.171875 179.457031 505.304688 181.433594 501.308594 177.953125 C 497.507812 174.640625 497.433594 165.71875 497.265625 161.023438 C 514.347656 161.28125 531.441406 161.117188 548.523438 160.992188 Z M 716.175781 285.015625 C 701.890625 286.246094 687.183594 285.230469 672.851562 285.257812 C 659.28125 285.289062 645.800781 286.597656 632.304688 287.859375 C 605.4375 290.351562 578.613281 290.488281 551.65625 290.472656 C 523.480469 290.457031 495.304688 290.425781 467.128906 290.425781 C 455.441406 290.425781 444.121094 291.65625 432.496094 292.386719 C 424.667969 292.875 415.308594 293.90625 408.589844 289.042969 C 403.257812 285.183594 409.503906 277.234375 414.867188 280.988281 C 420.324219 284.804688 432.585938 282.023438 438.894531 281.398438 C 450.535156 280.230469 461.671875 279.636719 473.390625 279.621094 C 500.972656 279.574219 528.539062 279.574219 556.121094 279.574219 C 582.898438 279.5625 609.402344 278.984375 636.074219 276.476562 C 649.066406 275.261719 661.984375 274.300781 675.039062 274.289062 C 688.429688 274.289062 702.164062 273.4375 715.539062 274.515625 C 715.539062 274.515625 715.554688 274.515625 715.554688 274.515625 C 722.226562 273.632812 722.941406 284.421875 716.175781 285.015625 Z M 653.230469 492.867188 C 653.019531 479.660156 653.339844 466.421875 652.515625 453.246094 C 651.726562 440.558594 651.453125 427.761719 651.105469 415.042969 C 650.890625 407.488281 650.679688 399.921875 650.542969 392.367188 C 650.449219 387.140625 651.164062 381.503906 650.117188 376.320312 C 651.089844 372.902344 648.71875 368.417969 643.886719 369.632812 C 638.414062 371.015625 632 370.058594 626.363281 370.574219 C 619.328125 371.214844 612.230469 371.410156 605.164062 371.078125 C 591.152344 370.410156 577.214844 371.078125 563.175781 371.078125 C 534.695312 371.078125 506.0625 370.726562 477.601562 371.472656 C 477.570312 371.472656 477.554688 371.488281 477.539062 371.488281 C 474.652344 369.40625 469.121094 371.941406 470.410156 376.03125 C 472.175781 381.640625 470.488281 389.953125 470.382812 395.863281 C 470.273438 402.003906 469.863281 408.128906 469.757812 414.28125 C 469.546875 428.765625 468.617188 443.230469 468.601562 457.730469 C 468.601562 472.910156 468.316406 488.125 468.589844 503.289062 C 468.847656 517.988281 470.304688 532.546875 470.972656 547.210938 C 471.109375 550.339844 473.464844 551.9375 475.898438 552.105469 C 477.082031 552.953125 478.632812 553.335938 480.394531 552.773438 C 483.222656 551.875 487.554688 553.078125 490.503906 553.167969 C 494.515625 553.289062 498.542969 553.257812 502.554688 553.273438 C 510.804688 553.304688 519.042969 553.273438 527.292969 553.289062 C 543.675781 553.304688 560.058594 553.683594 576.457031 553.820312 C 590.363281 553.941406 604.265625 552.117188 618.1875 551.980469 C 627.625 551.890625 637.367188 550.355469 646.847656 550.445312 C 649.296875 551.601562 652.410156 551.207031 653.855469 549.09375 C 655.953125 547.105469 656.316406 543.53125 654.554688 541.480469 C 654.265625 525.25 653.488281 509.066406 653.230469 492.867188 Z M 643.613281 539.839844 C 634.265625 540.039062 624.796875 541.132812 615.527344 541.328125 C 600.453125 541.632812 585.46875 543.273438 570.363281 543.242188 C 553.296875 543.199219 536.261719 542.789062 519.195312 542.804688 C 510.609375 542.804688 502.023438 542.878906 493.433594 542.878906 C 489.40625 542.878906 485.242188 542.195312 481.230469 542.484375 C 480.59375 530.128906 479.652344 517.804688 479.179688 505.417969 C 478.632812 491.238281 479.136719 476.953125 479.136719 462.761719 C 479.136719 449.601562 479 436.316406 479.558594 423.171875 C 479.941406 414.328125 480.273438 405.46875 480.214844 396.625 C 480.183594 391.851562 480.777344 386.089844 480.394531 380.773438 C 509.511719 381.746094 538.554688 380.984375 567.671875 381.105469 C 592.246094 381.214844 616.972656 381.578125 641.484375 380.148438 C 642.121094 386.867188 641.089844 394.585938 641.378906 401.0625 C 641.667969 407.839844 641.46875 414.617188 641.726562 421.410156 C 642.257812 434.84375 642.804688 448.398438 642.746094 461.832031 C 642.65625 487.789062 643.839844 513.808594 643.613281 539.839844 Z M 597.535156 418.78125 C 590.894531 411.273438 580.011719 403.839844 569.421875 401 C 568.949219 400.527344 568.386719 400.117188 567.65625 399.800781 C 563.082031 397.824219 557.21875 399.390625 552.507812 400.117188 C 546.261719 401.089844 540.820312 403.15625 535.089844 405.785156 C 524.558594 410.636719 512.917969 420.300781 506.230469 429.828125 C 499.390625 439.601562 497.554688 453.429688 497.644531 465.023438 C 497.734375 478.003906 502.402344 489.78125 510.835938 499.613281 C 519.390625 509.597656 530.546875 516.191406 543.492188 518.535156 C 556.59375 520.90625 572.503906 521.648438 585.132812 516.664062 C 608.265625 507.546875 623.339844 480.085938 617.472656 455.847656 C 614.070312 441.726562 607.183594 429.675781 597.535156 418.78125 Z M 607.550781 469.035156 C 605.421875 481.679688 601.152344 493.003906 590.484375 500.753906 C 578.082031 509.765625 562.398438 510.585938 547.582031 508.230469 C 520.757812 503.960938 502.949219 478.140625 509.511719 451.363281 C 510.789062 446.148438 512.613281 439.417969 515.910156 435.164062 C 519.347656 430.726562 523.675781 427.03125 528.039062 423.550781 C 533.097656 419.539062 537.886719 416.226562 543.890625 413.78125 C 546.640625 412.671875 552.703125 410.316406 557.777344 409.539062 C 558.8125 410.785156 560.332031 411.652344 562.339844 411.699219 C 575.558594 411.957031 587.703125 425.375 595.011719 434.585938 C 601.867188 443.246094 609.511719 457.367188 607.550781 469.035156 Z M 432.296875 274.179688 L 477.660156 273.558594 L 477.660156 224.363281 L 432.296875 224.363281 Z M 456.550781 235.382812 C 474.378906 235.382812 473.617188 262.996094 455.867188 262.996094 C 438.058594 263.011719 438.800781 235.382812 456.550781 235.382812 Z M 494.636719 272.402344 L 540 271.78125 L 540 222.585938 L 494.636719 222.585938 Z M 518.890625 233.605469 C 536.714844 233.605469 535.957031 261.21875 518.207031 261.21875 C 500.394531 261.234375 501.140625 233.605469 518.890625 233.605469 Z M 552.429688 268.027344 L 597.792969 267.402344 L 597.792969 218.195312 L 552.429688 218.195312 Z M 576.683594 229.226562 C 594.511719 229.226562 593.75 256.839844 576 256.839844 C 558.191406 256.855469 558.933594 229.226562 576.683594 229.226562 Z M 613.960938 267.949219 L 659.324219 267.328125 L 659.324219 218.132812 L 613.960938 218.132812 Z M 638.21875 229.167969 C 656.042969 229.167969 655.285156 256.78125 637.53125 256.78125 C 619.722656 256.78125 620.46875 229.167969 638.21875 229.167969 Z M 638.21875 229.167969 " fill-opacity="1" fill-rule="nonzero"/><path fill="#000000" d="M 917.445312 692.917969 C 918.175781 695.882812 922.035156 703.695312 919.179688 706.671875 C 916.519531 709.4375 909.378906 707.78125 905.867188 707.554688 C 892.296875 706.71875 879.394531 702.707031 868.375 694.484375 C 866.21875 692.875 868.9375 689.847656 871.082031 691.355469 C 872.417969 692.296875 873.890625 693.238281 875.457031 694.164062 C 875.714844 693.738281 876.066406 693.359375 876.476562 693.085938 C 879.273438 691.1875 883.585938 691.855469 886.734375 692.433594 C 895.152344 694 905.882812 697.175781 913.617188 691.597656 C 914.878906 690.683594 917.050781 691.339844 917.445312 692.917969 Z M 1050.222656 674.789062 C 1049.464844 673.179688 1047.0625 673.222656 1046.121094 674.605469 C 1045.9375 674.652344 1045.753906 674.667969 1045.558594 674.726562 C 1043.125 675.441406 1040.664062 678.085938 1038.414062 679.363281 C 1035.601562 680.960938 1032.746094 682.449219 1029.933594 684.058594 C 1022.152344 688.496094 1012.199219 692.296875 1003.21875 692.902344 C 1002.65625 692.933594 1002.214844 693.117188 1001.867188 693.359375 C 1000.101562 693.90625 999.753906 697.007812 1002.019531 697.722656 C 1002.15625 697.765625 1002.277344 697.78125 1002.414062 697.828125 C 1002.792969 698.039062 1003.234375 698.175781 1003.734375 698.175781 C 1009.539062 699.621094 1015.117188 699.195312 1021.058594 698.285156 C 1028.1875 697.175781 1035.421875 696.492188 1042.167969 693.847656 C 1045.617188 692.492188 1053.519531 690.820312 1054.875 686.917969 C 1056.226562 683.027344 1051.863281 678.269531 1050.222656 674.789062 Z M 1050.222656 674.789062 " fill-opacity="1" fill-rule="nonzero"/><path fill="#846510" d="M 1061.089844 417.09375 C 1060.054688 418.703125 1058.792969 420.042969 1057.273438 420.847656 C 1055.632812 426.714844 1052.273438 432.898438 1046.5 432.167969 C 1046.515625 434.417969 1046.363281 436.652344 1045.648438 438.792969 C 1042.519531 448.261719 1033.308594 445.480469 1029.722656 438.003906 C 1027.414062 433.1875 1026.667969 427.183594 1026.988281 421.226562 C 1026.714844 421.394531 1026.453125 421.59375 1026.179688 421.742188 C 1020.042969 425.40625 1007.140625 423.003906 1011.757812 413.460938 C 1014.648438 407.535156 1023.445312 403.871094 1028.414062 399.964844 C 1033.808594 395.710938 1038.976562 390.636719 1046.148438 389.9375 C 1046.242188 389.921875 1046.347656 389.921875 1046.4375 389.921875 C 1051.5 387.65625 1056.695312 386.242188 1061.011719 382.339844 C 1064.402344 379.269531 1068.640625 384.632812 1065.464844 387.761719 C 1064.886719 388.324219 1064.296875 388.84375 1063.6875 389.328125 C 1065.417969 389.890625 1066.984375 391.289062 1068.09375 393.796875 C 1071.210938 400.863281 1067.488281 412.441406 1061.089844 417.09375 Z M 652.59375 148.03125 C 649.707031 137.300781 645.785156 131.253906 637.792969 123.683594 C 631.941406 118.152344 626.164062 107.757812 616.878906 108.183594 C 609.601562 108.519531 609.675781 115.644531 612.472656 120.796875 C 614.25 124.066406 617.046875 126.328125 619.933594 128.5625 C 621.332031 129.640625 622.730469 130.980469 624.175781 132.242188 C 620.421875 137.515625 617.320312 143.699219 614.25 149.140625 C 611.378906 154.246094 605.40625 161.464844 611.441406 166.328125 C 616.5625 170.460938 626.988281 171.785156 633.140625 170.097656 C 639.691406 168.304688 646.484375 159.019531 649.691406 153.363281 C 649.828125 153.121094 649.933594 152.878906 650.023438 152.636719 C 651.816406 152.179688 653.261719 150.507812 652.59375 148.03125 Z M 652.59375 148.03125 " fill-opacity="1" fill-rule="nonzero"/><path fill="#3c59d8" d="M 797.101562 465.480469 C 795.613281 438.886719 795.324219 412.488281 796.707031 385.863281 C 798.089844 359.253906 798.558594 331.578125 802.832031 305.335938 C 803.257812 302.734375 805.109375 301.503906 806.964844 301.445312 C 811.25 298.800781 816.402344 300.988281 820.886719 302.21875 C 827.269531 303.980469 833.375 300.867188 839.683594 299.941406 C 854.210938 297.78125 868.542969 301.503906 882.886719 303.101562 C 895.378906 304.484375 900.183594 321.277344 903.449219 332.933594 C 908.054688 349.300781 911.125 366.0625 915.121094 382.613281 C 919.132812 399.265625 922.75 415.847656 928.175781 432.015625 C 933.386719 447.5625 939.753906 462.046875 947.097656 476.46875 C 954.710938 491.421875 963.386719 505.996094 973.523438 518.988281 C 978.066406 524.808594 982.335938 529.71875 985.953125 536.34375 C 989.40625 542.683594 993.707031 548.183594 997.976562 553.820312 C 1007.109375 565.871094 1015.742188 579.578125 1023.082031 593.074219 C 1030.390625 606.480469 1039.675781 618.46875 1046.757812 631.964844 C 1050.328125 638.773438 1053.597656 646.855469 1055.421875 654.5 C 1056.347656 658.375 1056.757812 662.84375 1055.253906 666.550781 C 1053.839844 670.03125 1051.105469 672.964844 1049.3125 676.234375 C 1047.972656 678.664062 1046.273438 680.714844 1044.082031 682.21875 C 1039.480469 685.398438 1033.902344 686.671875 1028.824219 688.527344 C 1020.878906 691.429688 1013.324219 693.164062 1005.148438 694.683594 C 1001.773438 695.304688 998.734375 695.898438 995.679688 696.09375 C 996.472656 696.445312 997.261719 696.777344 998.066406 697.128906 C 1001.394531 698.574219 1005.359375 699.5 1007.671875 702.492188 C 1009.207031 704.5 1007.183594 708.238281 1004.554688 706.914062 C 996.867188 703.054688 988.128906 700.609375 981.835938 694.5 C 981.53125 694.195312 981.320312 693.875 981.183594 693.558594 C 977.625 692.066406 974.070312 689.910156 972.066406 687.023438 C 970.363281 684.589844 969.800781 681.476562 968.265625 678.953125 C 966.503906 676.082031 964.222656 673.695312 962.476562 670.699219 C 955.105469 658.085938 949.117188 644.457031 941.6875 631.902344 C 933.523438 618.121094 926.429688 604.609375 920.757812 589.320312 C 911.277344 563.730469 897.050781 540.660156 887.066406 515.34375 C 887.25 516.148438 887.402344 516.9375 887.570312 517.742188 C 893.738281 545.097656 901.335938 571.996094 906.871094 599.546875 C 912.019531 625.171875 919.074219 650.109375 925.210938 675.414062 C 931.019531 699.316406 903.175781 699.941406 889.453125 697.933594 C 880.777344 696.671875 870.535156 695.488281 862.433594 691.640625 C 858.648438 689.847656 856.355469 686.902344 854.226562 683.101562 C 851.6875 678.542969 848.695312 674.441406 846.523438 669.621094 C 842.113281 659.789062 836.402344 650.882812 832.433594 640.839844 C 828.300781 630.367188 824.046875 620.109375 820.855469 609.183594 C 814.273438 586.691406 808.96875 563.105469 804.167969 540.066406 C 799.03125 515.644531 798.5 490.402344 797.101562 465.480469 Z M 930.714844 722.355469 C 930.46875 720.105469 929.359375 718.800781 927.292969 717.996094 C 923.8125 716.640625 918.648438 719.285156 915.242188 720.074219 C 908.90625 721.535156 902.523438 722.71875 896.15625 724.058594 C 880.59375 727.324219 865.125 730.972656 849.59375 734.390625 C 836.828125 737.203125 825.65625 739.664062 812.511719 738.980469 C 799.988281 738.328125 784.167969 739.238281 773.195312 732.292969 C 770.402344 730.515625 766.191406 733.9375 768.789062 736.746094 C 776.449219 745.03125 789.640625 745.757812 800.292969 746.59375 C 815.640625 747.8125 829.5625 748.207031 844.609375 744.542969 C 859.289062 740.957031 874.195312 738.402344 888.90625 734.984375 C 888.847656 735.621094 888.722656 736.277344 888.542969 736.914062 C 888.132812 739.210938 890.335938 741.976562 892.707031 741.976562 C 901.230469 741.945312 910.5625 738.054688 918.675781 735.730469 C 926.398438 733.511719 931.714844 731.414062 930.714844 722.355469 Z M 1064.308594 705.789062 C 1062.988281 708.328125 1052.777344 715.59375 1049.328125 718.679688 C 1044.613281 722.902344 1039.128906 726.335938 1033.6875 729.527344 C 1021.894531 736.429688 1011.089844 744.726562 999.070312 751.277344 C 987.625 757.523438 976.335938 762.398438 964.191406 766.957031 C 958.417969 769.132812 952.445312 770.484375 946.503906 772.171875 C 943.753906 772.945312 935.273438 775.894531 928.84375 775.46875 C 923.753906 775.453125 918.664062 773.660156 915.105469 769.984375 C 914.453125 769.664062 913.816406 769.300781 913.175781 768.890625 C 912.613281 769.695312 912.371094 770.757812 912.707031 772.082031 C 915.761719 783.84375 929.648438 785.636719 939.863281 783.492188 C 947.507812 781.882812 955.4375 779.679688 962.871094 777.292969 C 969.679688 775.121094 977.445312 773.066406 983.644531 769.710938 C 998.066406 761.929688 1012.625 754.894531 1026.042969 745.347656 C 1027.367188 744.40625 1028.734375 743.511719 1030.101562 742.644531 C 1030.800781 745.578125 1030.847656 748.632812 1032.09375 751.414062 C 1032.261719 751.777344 1032.457031 752.113281 1032.6875 752.429688 C 1037.699219 748.660156 1042.609375 744.800781 1047.410156 740.699219 C 1053.1875 735.773438 1061.332031 729.636719 1067.105469 723.144531 C 1067.214844 721.460938 1067.257812 719.589844 1067.457031 717.417969 C 1067.898438 712.554688 1067.488281 705.078125 1064.308594 705.789062 Z M 841.140625 706.734375 C 840.960938 706.078125 840.65625 705.457031 840.320312 704.878906 C 839.621094 703.695312 838.636719 702.722656 837.8125 701.640625 C 835.882812 699.148438 834.972656 695.929688 833.605469 693.117188 C 831.78125 689.378906 826.160156 692.570312 827.980469 696.292969 C 829.167969 698.722656 830.003906 701.398438 831.402344 703.738281 C 832.585938 705.714844 834.441406 707.1875 835.246094 709.378906 C 836.628906 713.175781 841.886719 711.65625 841.25 707.722656 C 841.371094 708.480469 841.203125 706.914062 841.140625 706.734375 Z M 850.503906 702.371094 C 848.527344 698.3125 846.308594 694.378906 844.257812 690.367188 C 842.496094 686.917969 836.839844 689.136719 838.621094 692.628906 C 840.746094 696.792969 843.042969 700.867188 845.09375 705.0625 C 847.039062 709.058594 852.769531 705.59375 850.503906 702.371094 Z M 860.882812 702.78125 C 863.359375 702.324219 864.5625 698.527344 861.734375 697.492188 C 859.589844 696.703125 858.96875 695.273438 858.058594 693.238281 C 856.796875 690.382812 855.261719 687.691406 853.695312 685 C 851.824219 681.765625 846.460938 684.105469 848.347656 687.371094 C 850.335938 690.820312 851.902344 694.4375 853.816406 697.902344 C 855.199219 700.425781 857.644531 703.375 860.882812 702.78125 Z M 976.988281 714.527344 C 974.875 713.296875 972.734375 712.234375 970.5 711.261719 C 967.261719 709.847656 965.667969 707.371094 961.820312 707.828125 C 958.265625 708.238281 958.066406 713.859375 961.761719 713.511719 C 963.707031 713.328125 964.238281 714.453125 965.804688 715.425781 C 967.777344 716.65625 970.058594 717.371094 972.09375 718.527344 C 974.859375 720.089844 977.382812 722.734375 980.589844 723.144531 C 983.734375 723.554688 985.316406 718.449219 982.0625 717.554688 C 980.132812 717.035156 978.707031 715.53125 976.988281 714.527344 Z M 995.679688 708.90625 C 988.660156 707.402344 982.230469 702.492188 976.273438 698.679688 C 973.097656 696.640625 969.710938 701.429688 972.886719 703.496094 C 979.464844 707.75 986.820312 713.449219 994.738281 714.710938 C 998.007812 715.226562 998.933594 709.605469 995.679688 708.90625 Z M 995.679688 708.90625 " fill-opacity="1" fill-rule="nonzero"/><path fill="#f48ee3" d="M 1069.445312 383.203125 C 1068.261719 376.199219 1065.359375 368.859375 1063.445312 361.988281 C 1059.722656 348.617188 1054.859375 335.683594 1048.125 323.511719 C 1046.742188 321.019531 1045.464844 318.433594 1044.203125 315.851562 C 1040.921875 307.828125 1036.757812 300.257812 1033.644531 292.144531 C 1030.664062 284.410156 1027.09375 276.460938 1022.824219 269.347656 C 1013.113281 253.253906 1000.9375 237.828125 986.972656 225.230469 C 980.132812 219.0625 973.066406 212.875 966.0625 206.917969 C 963.113281 204.410156 959.769531 202.542969 956.867188 199.957031 C 955.863281 199.0625 954.890625 198.210938 953.917969 197.40625 C 953.191406 195.082031 951.535156 193.242188 948.386719 191.570312 C 938.796875 186.507812 929.40625 181.039062 919.011719 177.710938 C 909.117188 174.535156 899.011719 171.511719 888.722656 169.945312 C 876.808594 168.152344 864.773438 169.019531 852.785156 168.941406 C 830.519531 168.804688 808.683594 172.832031 786.675781 175.6875 C 775.203125 177.179688 763.5625 179.550781 752.089844 180.644531 C 745.386719 181.28125 738.640625 178.289062 732.132812 176.722656 C 725.964844 175.234375 719.945312 173.484375 714.003906 171.207031 C 702.484375 166.800781 691.269531 161.921875 679.492188 158.199219 C 673.519531 156.296875 667.394531 155.25 661.726562 152.46875 C 658.140625 150.707031 654.996094 147.894531 650.984375 147.605469 C 649.082031 146.585938 646.53125 146.859375 644.902344 148.53125 C 641.957031 151.570312 638.582031 153.925781 635.449219 156.828125 C 632.503906 159.566406 626.878906 164.261719 625.558594 168.195312 C 623.140625 175.429688 631.710938 180.066406 637.214844 182.179688 C 646.789062 185.839844 656.148438 188.742188 665.101562 193.710938 C 673.992188 198.652344 685.160156 199.882812 694.703125 203.394531 C 714.855469 210.777344 735.050781 217.148438 756.023438 221.859375 C 766.480469 224.214844 776.34375 228.832031 786.722656 231.035156 C 792.480469 232.253906 798.453125 231.964844 804.304688 231.964844 C 806.039062 231.964844 810.640625 231.355469 813.804688 231.402344 C 813.105469 234.59375 811.691406 237.828125 811.386719 240.992188 C 810.855469 246.644531 810.351562 252.28125 809.714844 257.933594 C 808.285156 270.441406 806.980469 282.980469 804.957031 295.410156 C 804.046875 301.035156 797.40625 314.421875 803.773438 318.875 C 806.191406 320.5625 810.019531 319.894531 812.738281 319.726562 C 822.3125 319.148438 831.855469 319.117188 841.445312 319.238281 C 853.027344 319.375 864.589844 319.742188 876.171875 319.789062 C 880.351562 319.800781 884.546875 319.773438 888.679688 320.457031 C 892.371094 321.0625 896.488281 323.296875 899.652344 320.289062 C 901.898438 318.160156 902.445312 313.9375 903.34375 311.125 C 905.046875 305.835938 906.597656 300.488281 908.449219 295.230469 C 912.445312 283.875 919.210938 274.042969 925.332031 263.769531 C 928.101562 259.152344 931.078125 254.636719 933.921875 250.03125 C 935.621094 251.660156 937.386719 253.238281 939.070312 254.910156 C 944.390625 260.167969 949.480469 265.6875 955.273438 270.425781 C 961.441406 275.472656 966.777344 282.054688 972.398438 287.738281 C 978.492188 293.890625 983.84375 300.914062 988.933594 307.917969 C 999.570312 322.566406 1005.011719 339.921875 1012.703125 356.09375 C 1016.273438 363.617188 1019.359375 371.320312 1022.320312 379.101562 C 1024.644531 385.195312 1026.136719 394.800781 1030.832031 399.570312 C 1037.746094 406.609375 1054.402344 403.691406 1061.542969 398.402344 C 1066.226562 394.9375 1070.480469 389.390625 1069.445312 383.203125 Z M 629.917969 418.796875 C 620.785156 427.441406 612.792969 437.382812 603.8125 446.242188 C 594.980469 454.949219 586.046875 463.582031 577.382812 472.472656 C 573.433594 476.527344 569.601562 480.769531 566.230469 485.3125 C 563.707031 488.703125 562.035156 492.578125 557.871094 494.066406 C 556.015625 494.734375 553.738281 494.292969 552.277344 492.957031 C 547.917969 488.960938 547.050781 481.332031 544.726562 476.117188 C 541.289062 468.445312 538.964844 460.238281 535.179688 452.730469 C 533.769531 449.933594 534.953125 447.640625 536.988281 446.453125 C 537.75 444.980469 538.796875 443.808594 539.921875 442.398438 C 541.898438 439.902344 543.3125 436.574219 546.488281 435.464844 C 549.632812 434.371094 552.992188 435.769531 554.648438 438.597656 C 555.773438 440.511719 555.957031 443.019531 556.640625 445.117188 C 557.824219 448.808594 559.695312 452.167969 561.289062 455.695312 C 561.65625 456.484375 562.019531 457.289062 562.398438 458.09375 C 563.386719 457.121094 564.34375 456.164062 565.285156 455.207031 C 573.144531 447.152344 582.019531 440.027344 589.691406 431.804688 C 597.550781 423.386719 606.183594 416.242188 614.644531 408.429688 C 619.449219 403.980469 627.988281 393.21875 634.828125 400.679688 C 641.4375 407.929688 635.175781 413.828125 629.917969 418.796875 Z M 629.917969 418.796875 " fill-opacity="1" fill-rule="nonzero"/><path fill="#846510" d="M 937.460938 134.582031 C 935.289062 131.847656 932.628906 130.828125 929.769531 130.644531 C 930.789062 125.054688 930.667969 119.035156 927.402344 114.371094 C 923.390625 108.640625 915.242188 103.914062 908.511719 102.5 C 901.078125 100.933594 892.476562 102.773438 886.15625 106.921875 C 880.183594 110.84375 877.3125 116.222656 874.925781 122.148438 C 874.835938 122.316406 874.742188 122.484375 874.652344 122.636719 C 872.917969 124.367188 871.476562 126.449219 869.757812 128.199219 C 868.695312 129.277344 867.570312 130.328125 866.429688 131.328125 C 865.714844 131.953125 864.773438 132.394531 864.179688 133.152344 C 861.613281 136.480469 865.214844 138.335938 868.421875 139.109375 C 867.433594 144.214844 866.703125 149.382812 866.523438 154.640625 C 866.523438 154.839844 866.476562 155.035156 866.429688 155.203125 C 866.628906 155.707031 866.824219 156.207031 866.960938 156.753906 C 868.984375 164.746094 862.796875 170.414062 861.171875 177.648438 C 859.121094 186.707031 871.71875 189.199219 878.222656 189.898438 C 884.453125 190.566406 889.804688 189.304688 895.59375 186.875 C 898.117188 185.808594 900.578125 184.65625 902.949219 183.273438 C 904.726562 182.238281 910.546875 179.929688 906.488281 179.898438 C 908.90625 179.914062 911.414062 178.5625 911.625 175.855469 C 911.898438 172.164062 911.078125 167.742188 912.339844 164.246094 C 913.207031 161.828125 912.035156 163.609375 914.316406 162.164062 C 916.261719 160.917969 918.921875 160.1875 921.046875 159.292969 C 926.867188 156.84375 933.875 154.746094 937.523438 149.214844 C 940.363281 144.898438 940.789062 138.777344 937.460938 134.582031 Z M 937.460938 134.582031 " fill-opacity="1" fill-rule="nonzero"/><path fill="#ffd769" d="M 961.5625 126.648438 C 958.8125 131.039062 953.585938 132.941406 948.859375 134.398438 C 949.890625 135.902344 950.484375 137.726562 950.410156 139.503906 C 950.257812 142.847656 948.21875 145.886719 946.382812 148.546875 C 944.800781 150.828125 943.070312 151.769531 941.246094 153.183594 C 942.902344 156.160156 942.855469 158.609375 938.980469 161.175781 C 935.242188 163.667969 929.542969 164.199219 924.785156 163.820312 C 924.863281 164.945312 924.511719 166.113281 923.738281 167.101562 C 920.273438 171.523438 913.585938 168.59375 912.113281 164.046875 C 911.65625 162.621094 912.539062 161.648438 913.648438 161.359375 C 915.441406 159.535156 919.042969 159.035156 921.535156 158.457031 C 922.871094 157.042969 924.878906 156.570312 926.898438 155.78125 C 929.921875 154.597656 932.703125 152.894531 934.847656 150.417969 C 937.566406 147.285156 937.644531 144.351562 937.992188 140.8125 C 937.113281 140.554688 936.335938 139.914062 935.878906 139.15625 C 930.425781 130.339844 923.402344 144.398438 917.980469 145.75 C 916.398438 146.144531 914.484375 145.476562 914.011719 143.761719 C 913.175781 140.722656 914.910156 138.136719 917.1875 135.886719 C 917.128906 133.015625 919.511719 129.550781 920.835938 127.421875 C 929.710938 113.214844 905.515625 108.792969 895.988281 108.136719 C 889.179688 107.667969 888.070312 104.78125 886.414062 98.320312 C 885 92.804688 888.085938 86.816406 894.484375 86.984375 C 896.277344 87.03125 897.828125 87.746094 899.074219 88.855469 C 899.605469 87.925781 900.289062 87.03125 901.199219 86.195312 C 903.769531 83.882812 907.886719 81.984375 911.324219 81.742188 C 916.703125 81.363281 918.9375 84.035156 919.027344 87.683594 C 922.976562 83.445312 928.8125 79.402344 934.300781 83.414062 C 936.609375 85.101562 937.734375 87.683594 937.917969 90.417969 C 940.179688 90.113281 942.492188 90.433594 944.332031 91.511719 C 948.554688 94.003906 948.113281 98.519531 946.414062 102.789062 C 952.628906 103.59375 956.945312 109.628906 955.179688 115.675781 C 960.667969 116.90625 965.394531 120.539062 961.5625 126.648438 Z M 880.578125 148.457031 C 879.421875 149.960938 876.519531 151.648438 874.621094 150.734375 C 872.890625 149.882812 870.761719 146.96875 871.035156 144.945312 C 871.003906 144.914062 870.972656 144.914062 870.960938 144.886719 C 870.929688 144.855469 870.898438 144.824219 870.867188 144.777344 C 870.335938 144.140625 870.867188 143.167969 871.703125 143.378906 C 873.738281 143.914062 875.820312 144.003906 877.917969 143.957031 C 878.953125 143.941406 880.109375 143.683594 881.109375 143.761719 C 881.414062 143.777344 881.734375 143.777344 881.992188 143.972656 C 883.4375 145.007812 881.246094 147.574219 880.578125 148.457031 Z M 880.578125 148.457031 " fill-opacity="1" fill-rule="nonzero"/><path fill="#000000" d="M 931.398438 249.851562 C 930.804688 247.90625 928.222656 246.128906 926.855469 244.820312 C 925.5625 243.558594 924.285156 242.191406 923.085938 240.839844 C 920.0625 237.402344 917.417969 233.652344 914.238281 230.324219 C 912.25 228.242188 915.226562 224.835938 917.234375 226.933594 C 921.0625 230.929688 924.300781 235.429688 928.101562 239.425781 C 930.5 241.964844 934.558594 244.683594 935.605469 248.164062 C 936.472656 250.945312 932.25 252.660156 931.398438 249.851562 Z M 818.652344 200.355469 C 815.839844 205.917969 813.394531 211.585938 810.367188 216.996094 C 808.105469 221.035156 805.324219 224.625 803.074219 228.652344 C 802.285156 230.078125 802.953125 231.707031 804.640625 231.949219 C 808.042969 232.449219 811.460938 232.648438 813.089844 230.503906 C 813.863281 230.535156 814.652344 230.1875 815.066406 229.304688 C 818.941406 220.761719 819.183594 210.808594 822.328125 201.917969 C 823.148438 199.535156 819.820312 198.058594 818.652344 200.355469 Z M 885.914062 512.226562 C 879.242188 503.625 875.820312 492.257812 872.160156 482.136719 C 868.179688 471.164062 864.394531 460.160156 860.535156 449.160156 C 856.644531 438.066406 852.980469 426.410156 850.199219 414.996094 C 847.617188 404.464844 844.226562 393.371094 843.785156 382.488281 C 843.664062 379.496094 838.984375 379.480469 839.121094 382.488281 C 839.683594 394.390625 843.46875 406.484375 846.414062 417.976562 C 849.304688 429.191406 852.964844 440.648438 856.902344 451.53125 C 861.113281 463.171875 865.046875 474.886719 869.257812 486.527344 C 872.707031 496.042969 876.1875 506.453125 882.476562 514.535156 C 884.105469 516.617188 887.539062 514.339844 885.914062 512.226562 Z M 811.691406 229.636719 C 797.085938 229.167969 783.894531 225.65625 769.703125 222.585938 C 765.796875 221.734375 761.800781 221.1875 757.953125 220.109375 C 754.566406 219.167969 751.617188 217.449219 748.289062 216.417969 C 740.886719 214.105469 732.027344 214.105469 725.476562 209.503906 C 723.457031 208.089844 721.34375 211.1875 723.320312 212.664062 C 727.074219 215.460938 732.558594 217.253906 737.105469 218.515625 C 741.953125 219.867188 746.554688 220.503906 751.191406 222.527344 C 755.308594 224.320312 759.777344 225.140625 764.167969 226.035156 C 779.945312 229.289062 795.308594 234.699219 811.628906 233.9375 C 814.046875 233.847656 814.183594 229.714844 811.691406 229.636719 Z M 811.691406 229.636719 " fill-opacity="1" fill-rule="nonzero"/></svg>