<svg xmlns="http://www.w3.org/2000/svg" xmlns:xlink="http://www.w3.org/1999/xlink" width="1920" zoomAndPan="magnify" viewBox="0 0 1440 809.999993" height="1080" preserveAspectRatio="xMidYMid meet" version="1.0"><defs><filter x="0%" y="0%" width="50%" height="50%" id="eaae860771"><feColorMatrix values="0 0 0 0 1 0 0 0 0 1 0 0 0 0 1 0 0 0 1 0" color-interpolation-filters="sRGB"/></filter><clipPath id="63caa969bb"><path d="M 835 720 L 1099 720 L 1099 795.101562 L 835 795.101562 Z M 835 720 " clip-rule="nonzero"/></clipPath><clipPath id="6a005865c4"><path d="M 920 554 L 1189.335938 554 L 1189.335938 673 L 920 673 Z M 920 554 " clip-rule="nonzero"/></clipPath><mask id="86a3aa7d0f"><g filter="url(#eaae860771)"><rect x="-144" width="1728" fill="#000000" y="-80.999999" height="971.999992" fill-opacity="0.67"/></g></mask><clipPath id="d90f7a8c23"><rect x="0" width="27" y="0" height="27"/></clipPath><mask id="a28a5d0798"><g filter="url(#eaae860771)"><rect x="-144" width="1728" fill="#000000" y="-80.999999" height="971.999992" fill-opacity="0.67"/></g></mask><clipPath id="c6d7109f67"><rect x="0" width="27" y="0" height="27"/></clipPath><clipPath id="2ce55366b8"><path d="M 265 692 L 519 692 L 519 795.101562 L 265 795.101562 Z M 265 692 " clip-rule="nonzero"/></clipPath><clipPath id="d579a70e0e"><path d="M 250.507812 391 L 440 391 L 440 795.101562 L 250.507812 795.101562 Z M 250.507812 391 " clip-rule="nonzero"/></clipPath><clipPath id="499b117e11"><path d="M 449 387 L 534 387 L 534 795.101562 L 449 795.101562 Z M 449 387 " clip-rule="nonzero"/></clipPath><clipPath id="56ffe8bd71"><path d="M 250.507812 440 L 375 440 L 375 615 L 250.507812 615 Z M 250.507812 440 " clip-rule="nonzero"/></clipPath></defs><path stroke-linecap="round" transform="matrix(0.917166, 0, 0, 0.917166, 686.562044, 221.790947)" fill-opacity="1" fill="#efefef" fill-rule="nonzero" stroke-linejoin="round" d="M -327.801225 -218.985156 C -327.801225 -218.985156 327.797961 -218.985156 327.797961 -218.985156 C 327.797961 -218.985156 327.797961 218.985305 327.797961 218.985305 C 327.797961 218.985305 -327.801225 218.985305 -327.801225 218.985305 C -327.801225 218.985305 -327.801225 -218.985156 -327.801225 -218.985156 Z M -327.801225 -218.985156 " stroke="#000000" stroke-width="6" stroke-opacity="1" stroke-miterlimit="4"/><path fill="#5ac8bd" d="M 861.59375 193.988281 C 871.757812 163.90625 881.882812 133.9375 892.046875 103.859375 C 892.25 103.90625 892.605469 103.941406 892.910156 104.089844 C 896.457031 105.804688 900.136719 107.300781 903.507812 109.308594 C 908.203125 112.109375 912.796875 115.121094 917.199219 118.347656 C 922.023438 121.890625 926.507812 125.902344 930.476562 130.394531 C 936.207031 136.875 941.441406 143.761719 945.566406 151.394531 C 947.675781 155.292969 949.480469 159.347656 951.386719 163.347656 C 951.878906 164.375 951.90625 164.988281 950.402344 165.429688 C 943.488281 167.472656 936.625 169.699219 929.757812 171.90625 C 921.839844 174.453125 913.941406 177.046875 906.042969 179.628906 C 900.175781 181.554688 894.320312 183.515625 888.441406 185.410156 C 883.414062 187.035156 878.351562 188.546875 873.324219 190.167969 C 869.601562 191.367188 865.914062 192.675781 862.207031 193.933594 C 862.042969 193.988281 861.859375 193.96875 861.59375 193.988281 Z M 861.59375 193.988281 " fill-opacity="1" fill-rule="nonzero"/><path stroke-linecap="round" transform="matrix(0.917165, 0.000310298, -0.000310298, 0.917165, 811.126909, 204.989981)" fill-opacity="1" fill="#efefef" fill-rule="nonzero" stroke-linejoin="round" d="M 71.62123 110.146919 C 59.709851 113.613554 47.529267 114.465225 35.412047 113.7751 C 8.992678 112.276336 -14.137313 102.313734 -33.798801 84.607014 C -51.879705 68.313762 -63.747958 48.185266 -68.837053 24.383179 C -74.510539 -2.084872 -71.648654 -27.836033 -58.998896 -51.857074 C -30.617812 -105.756385 24.020702 -120.673014 66.512067 -111.44526 C 64.712253 -106.235837 62.891131 -101.064739 61.121128 -95.863845 C 57.849175 -86.245812 54.619815 -76.623535 51.36916 -66.996991 C 48.450392 -58.316067 45.552918 -49.635151 42.621373 -40.954224 C 38.91971 -29.994446 35.201005 -19.055957 31.482304 -8.104692 C 30.682398 -5.753428 29.793039 -3.444724 29.091098 -1.076457 C 28.852869 -0.25438 28.819151 0.793356 29.121804 1.564141 C 34.330883 14.935784 39.642163 28.264801 44.872533 41.623659 C 48.483064 50.843272 51.991389 60.096992 55.580628 69.325131 C 58.381253 76.513453 61.241497 83.676201 64.050637 90.856002 C 66.382358 96.834914 68.680011 102.826614 70.99044 108.814051 C 71.152423 109.227124 71.361248 109.614627 71.599934 110.146927 C 71.599934 110.146927 71.62123 110.146919 71.62123 110.146919 Z M 71.62123 110.146919 " stroke="#5ac8bd" stroke-width="6" stroke-opacity="1" stroke-miterlimit="4"/><path stroke-linecap="round" transform="matrix(0.917165, 0.000310298, -0.000310298, 0.917165, 910.550888, 241.366311)" fill-opacity="1" fill="#efefef" fill-rule="nonzero" stroke-linejoin="round" d="M 46.172829 -61.089386 C 51.102153 -31.158478 46.264795 -3.268608 29.803697 22.248647 C 19.123354 38.811432 5.072907 51.83183 -12.394569 61.088388 C -14.947918 54.641056 -17.445855 48.329995 -19.935278 42.001894 C -22.944757 34.340889 -25.945717 26.67988 -28.925385 19.010346 C -33.784926 6.51169 -38.614661 -6.008271 -43.474204 -18.511186 C -44.906488 -22.190518 -46.423943 -25.840007 -47.907329 -29.498025 C -48.337855 -30.571159 -47.345541 -30.699267 -46.826002 -30.891099 C -43.866327 -31.961121 -40.876822 -32.980045 -37.874519 -33.939346 C -31.784744 -35.892049 -25.665123 -37.751064 -19.588127 -39.708022 C -14.465052 -41.358006 -9.384606 -43.118711 -4.265801 -44.798507 C 3.834 -47.471669 11.942328 -50.11928 20.054921 -52.749856 C 26.562029 -54.860285 33.073407 -56.940903 39.593299 -59.030041 C 41.39468 -59.609881 43.183273 -60.219529 44.984653 -60.799369 C 45.372182 -60.931531 45.785289 -60.991297 46.172832 -61.080868 C 46.172832 -61.080868 46.172829 -61.089386 46.172829 -61.089386 Z M 46.172829 -61.089386 " stroke="#5ac8bd" stroke-width="6" stroke-opacity="1" stroke-miterlimit="4"/><path stroke-linecap="round" transform="matrix(0.99971, 0, 0, 0.0499855, 657.461109, 269.556189)" fill-opacity="1" fill="#efefef" fill-rule="nonzero" stroke-linejoin="round" d="M -11.030709 -74.582865 C -11.030709 -74.582865 11.030365 -74.582865 11.030365 -74.582865 C 11.030365 -74.582865 11.030365 74.600942 11.030365 74.600942 C 11.030365 74.600942 -11.030709 74.600942 -11.030709 74.600942 C -11.030709 74.600942 -11.030709 -74.582865 -11.030709 -74.582865 Z M -11.030709 -74.582865 " stroke="#5ac8bd" stroke-width="6" stroke-opacity="1" stroke-miterlimit="4"/><path stroke-linecap="round" transform="matrix(0.99971, 0, 0, 0.0799768, 608.765184, 269.822205)" fill-opacity="1" fill="#efefef" fill-rule="nonzero" stroke-linejoin="round" d="M -11.030096 -43.297909 C -11.030096 -43.297909 11.030979 -43.297909 11.030979 -43.297909 C 11.030979 -43.297909 11.030979 43.299429 11.030979 43.299429 C 11.030979 43.299429 -11.030096 43.299429 -11.030096 43.299429 C -11.030096 43.299429 -11.030096 -43.297909 -11.030096 -43.297909 Z M -11.030096 -43.297909 " stroke="#5ac8bd" stroke-width="6" stroke-opacity="1" stroke-miterlimit="4"/><path stroke-linecap="round" transform="matrix(0.99971, 0, 0, 0.0599826, 560.369162, 270.180417)" fill-opacity="1" fill="#efefef" fill-rule="nonzero" stroke-linejoin="round" d="M -11.028605 -51.915207 C -11.028605 -51.915207 11.028562 -51.915207 11.028562 -51.915207 C 11.028562 -51.915207 11.028562 51.956013 11.028562 51.956013 C 11.028562 51.956013 -11.028605 51.956013 -11.028605 51.956013 C -11.028605 51.956013 -11.028605 -51.915207 -11.028605 -51.915207 Z M -11.028605 -51.915207 " stroke="#5ac8bd" stroke-width="6" stroke-opacity="1" stroke-miterlimit="4"/><path stroke-linecap="round" transform="matrix(0.99971, 0, 0, 0.099971, 511.993228, 269.8936)" fill-opacity="1" fill="#efefef" fill-rule="nonzero" stroke-linejoin="round" d="M -11.031578 -33.945829 C -11.031578 -33.945829 11.029496 -33.945829 11.029496 -33.945829 C 11.029496 -33.945829 11.029496 33.925385 11.029496 33.925385 C 11.029496 33.925385 -11.031578 33.925385 -11.031578 33.925385 C -11.031578 33.925385 -11.031578 -33.945829 -11.031578 -33.945829 Z M -11.031578 -33.945829 " stroke="#5ac8bd" stroke-width="6" stroke-opacity="1" stroke-miterlimit="4"/><path stroke-linecap="round" transform="matrix(0.99971, 0, 0, 0.107126, 460.578079, 270.815836)" fill-opacity="1" fill="#efefef" fill-rule="nonzero" stroke-linejoin="round" d="M -11.030491 -23.040004 C -11.030491 -23.040004 11.030583 -23.040004 11.030583 -23.040004 C 11.030583 -23.040004 11.030583 23.050651 11.030583 23.050651 C 11.030583 23.050651 -11.030491 23.050651 -11.030491 23.050651 C -11.030491 23.050651 -11.030491 -23.040004 -11.030491 -23.040004 Z M -11.030491 -23.040004 " stroke="#5ac8bd" stroke-width="6" stroke-opacity="1" stroke-miterlimit="4"/><path stroke-linecap="round" transform="matrix(0.99971, 0, 0, 0.99971, 558.114818, 134.720756)" fill="none" stroke-linejoin="round" d="M -99.374056 51.993515 L -99.374056 51.993515 " stroke="#5ac8bd" stroke-width="6" stroke-opacity="1" stroke-miterlimit="4"/><path fill="#5ac8bd" d="M 458.769531 186.621094 C 458.8125 186.621094 458.851562 186.65625 458.851562 186.699219 C 458.851562 186.746094 458.8125 186.78125 458.769531 186.78125 C 458.722656 186.78125 458.6875 186.746094 458.6875 186.699219 C 458.6875 186.65625 458.722656 186.621094 458.769531 186.621094 Z M 458.769531 186.621094 " fill-opacity="1" fill-rule="nonzero"/><g clip-path="url(#63caa969bb)"><path fill="#5ac8bd" d="M 880.886719 735.433594 C 880.886719 735.433594 849.195312 722.621094 849.195312 722.621094 C 835.164062 758.90625 835.171875 798.242188 835.171875 798.242188 C 835.171875 798.242188 1097.390625 798.242188 1097.390625 798.242188 C 1099.492188 766.351562 1096.097656 740.371094 1091.144531 720.476562 C 998.839844 783.292969 880.875 735.433594 880.875 735.433594 C 880.875 735.433594 880.886719 735.433594 880.886719 735.433594 Z M 880.886719 735.433594 " fill-opacity="1" fill-rule="nonzero"/></g><path fill="#000000" d="M 1091.15625 720.46875 C 1083.277344 688.84375 1071.453125 672.628906 1071.453125 672.628906 C 1071.453125 672.628906 887.378906 672.628906 887.378906 672.628906 C 868.851562 683.679688 856.910156 702.683594 849.195312 722.613281 C 849.195312 722.613281 880.886719 735.425781 880.886719 735.425781 C 880.886719 735.425781 998.851562 783.285156 1091.15625 720.46875 Z M 1091.15625 720.46875 " fill-opacity="1" fill-rule="nonzero"/><path fill="#be9fff" d="M 1093.308594 436.59375 C 1068.484375 423.84375 1043.65625 416.269531 1019.984375 412.230469 C 1001.878906 432.214844 954.84375 455.738281 954.84375 455.738281 C 941.398438 435.109375 924.714844 432.570312 924.714844 432.570312 C 924.714844 432.570312 931.84375 411.382812 931.84375 411.382812 C 889.957031 417.3125 862.203125 429.96875 862.203125 429.96875 C 862.753906 434.757812 862.851562 439.589844 862.851562 444.40625 C 862.886719 474.636719 858.914062 505.03125 855.007812 534.957031 C 850.65625 568.257812 836.90625 599.113281 829.367188 631.953125 C 829.136719 632.9375 828.925781 633.917969 828.714844 634.898438 C 820.824219 671.824219 827.519531 706.75 857.957031 731.039062 C 882.683594 750.757812 916.207031 760.792969 947.433594 760.070312 C 1102.765625 756.484375 1102.773438 623.347656 1102.773438 623.347656 C 1102.777344 556.898438 1093.308594 436.585938 1093.308594 436.585938 C 1093.308594 436.585938 1093.308594 436.59375 1093.308594 436.59375 Z M 1093.308594 436.59375 " fill-opacity="1" fill-rule="nonzero"/><path stroke-linecap="round" transform="matrix(0.917166, 0.0000502887, -0.0000502887, 0.917166, 947.718295, 525.212562)" fill="none" stroke-linejoin="round" d="M 7.756325 -75.749326 C 7.756325 -75.749326 -4.883744 -61.531938 -4.883744 -61.531938 C -4.883744 -61.531938 9.293827 1.688561 -7.755332 75.750044 " stroke="#000000" stroke-width="6" stroke-opacity="1" stroke-miterlimit="4"/><path fill="#be9fff" d="M 966.433594 370.542969 C 966.433594 370.542969 924.324219 357.195312 887.398438 436.59375 C 887.398438 436.59375 924.707031 432.578125 924.707031 432.578125 C 924.707031 432.578125 985.957031 438.230469 985.957031 438.230469 C 985.957031 438.230469 1019.257812 429.792969 1038.847656 438.234375 C 1038.847656 438.234375 1066.128906 386.359375 989.195312 370.542969 C 989.195312 370.542969 966.421875 370.542969 966.421875 370.542969 C 966.421875 370.542969 966.433594 370.542969 966.433594 370.542969 Z M 966.433594 370.542969 " fill-opacity="1" fill-rule="nonzero"/><path fill="#000000" d="M 966.429688 404.386719 C 966.429688 404.386719 993.605469 409.136719 1010.316406 388.21875 C 1009.097656 380.203125 1008.898438 370.011719 1010.980469 357.328125 C 1010.980469 357.328125 946.097656 357.324219 946.097656 357.324219 C 946.097656 357.324219 937.890625 388.433594 937.890625 388.433594 C 943.4375 395.570312 952.390625 402.769531 966.421875 404.386719 C 966.421875 404.386719 966.429688 404.386719 966.429688 404.386719 Z M 966.429688 404.386719 " fill-opacity="1" fill-rule="nonzero"/><path fill="#86492a" d="M 966.429688 404.386719 C 952.398438 402.761719 943.445312 395.570312 937.898438 388.433594 C 937.898438 388.433594 931.84375 411.390625 931.84375 411.390625 C 931.84375 411.390625 924.714844 432.578125 924.714844 432.578125 C 924.714844 432.578125 941.398438 435.117188 954.84375 455.746094 C 954.84375 455.746094 1001.878906 432.222656 1019.984375 412.238281 C 1019.984375 412.238281 1012.886719 405.078125 1010.316406 388.226562 C 993.605469 409.148438 966.429688 404.394531 966.429688 404.394531 C 966.429688 404.394531 966.429688 404.386719 966.429688 404.386719 Z M 966.429688 404.386719 " fill-opacity="1" fill-rule="nonzero"/><path stroke-linecap="round" transform="matrix(0.917166, 0.0000502887, -0.0000502887, 0.917166, 965.517966, 436.564894)" fill="none" stroke-linejoin="round" d="M -74.898958 -19.794549 C -74.898958 -19.794549 -85.174949 0.0233552 -85.174949 0.0233552 C -85.174949 0.0233552 -44.497043 -4.352915 -44.497043 -4.352915 C -44.497043 -4.352915 -24.726347 -0.623075 -11.645637 20.905684 C -11.645637 20.905684 25.253689 1.8061 25.253689 1.8061 C 57.664528 -7.305777 79.961132 1.8031 79.961132 1.8031 C 86.302164 -10.744397 85.083519 -20.906413 85.083519 -20.906413 " stroke="#000000" stroke-width="6" stroke-opacity="1" stroke-miterlimit="4"/><path fill="#86492a" d="M 797.507812 551.71875 C 797.507812 551.71875 769.925781 575.96875 769.925781 575.96875 C 769.925781 575.96875 733.191406 663.773438 819.199219 684.1875 C 819.199219 684.1875 871.503906 670.195312 851.363281 585.75 C 851.363281 585.75 853.96875 572.238281 853.96875 572.238281 C 853.96875 572.238281 845.382812 545.027344 845.382812 545.027344 C 845.382812 545.027344 797.507812 551.71875 797.507812 551.71875 Z M 797.507812 551.71875 " fill-opacity="1" fill-rule="nonzero"/><path fill="#be9fff" d="M 880.023438 440.894531 C 880.023438 440.894531 862.191406 429.980469 862.191406 429.980469 C 862.191406 429.980469 836.375 433.71875 809.011719 498.332031 C 809.011719 498.332031 769.917969 575.96875 769.917969 575.96875 C 769.917969 575.96875 823.984375 561.332031 853.957031 572.238281 C 853.957031 572.238281 880.023438 440.902344 880.023438 440.902344 C 880.023438 440.902344 880.023438 440.894531 880.023438 440.894531 Z M 880.023438 440.894531 " fill-opacity="1" fill-rule="nonzero"/><path stroke-linecap="round" transform="matrix(0.917166, 0.0000502887, -0.0000502887, 0.917166, 853.771427, 519.71817)" fill="none" stroke-linejoin="round" d="M -9.466461 63.196874 C 0.365399 21.666379 7.364967 -20.336715 9.466586 -63.195609 " stroke="#000000" stroke-width="6" stroke-opacity="1" stroke-miterlimit="4"/><path fill="#efefef" d="M 850.105469 564.507812 C 850.105469 564.507812 954.011719 564.511719 954.011719 564.511719 C 954.011719 564.511719 954.003906 694.734375 954.003906 694.734375 C 954.003906 694.734375 850.101562 694.726562 850.101562 694.726562 C 850.101562 694.726562 850.105469 564.507812 850.105469 564.507812 Z M 850.105469 564.507812 " fill-opacity="1" fill-rule="nonzero"/><path fill="#86492a" d="M 778.390625 637.832031 C 778.390625 637.832031 779.476562 579.28125 854.601562 580.210938 C 861.578125 580.292969 871.613281 580.992188 876.851562 586.667969 C 881.675781 591.886719 882.085938 608.972656 872.207031 608.992188 C 886.480469 608.984375 881.550781 643.238281 868.933594 640.613281 C 868.933594 640.613281 883.917969 643.734375 880 660.015625 C 880 660.015625 879.347656 685.5 833.097656 685.5 C 833.097656 685.5 784.890625 688.625 778.378906 637.839844 C 778.378906 637.839844 778.390625 637.832031 778.390625 637.832031 Z M 778.390625 637.832031 " fill-opacity="1" fill-rule="nonzero"/><path stroke-linecap="round" transform="matrix(0.917166, 0.0000502887, -0.0000502887, 0.917166, 861.789035, 608.981773)" fill="none" stroke-linejoin="round" d="M 11.371682 -0.00204596 C 11.371682 -0.00204596 -11.371622 -0.000798928 -11.371622 -0.000798928 " stroke="#000000" stroke-width="6" stroke-opacity="1" stroke-miterlimit="4"/><path stroke-linecap="round" transform="matrix(0.917166, 0.0000502887, -0.0000502887, 0.917166, 860.150123, 640.605516)" fill="none" stroke-linejoin="round" d="M 9.585274 -0.000576835 C 9.585274 -0.000576835 -9.584691 0.000474265 -9.584691 0.000474265 " stroke="#000000" stroke-width="6" stroke-opacity="1" stroke-miterlimit="4"/><path stroke-linecap="round" transform="matrix(0.917166, 0.0000502887, -0.0000502887, 0.917166, 809.892973, 627.510228)" fill="none" stroke-linejoin="round" d="M -12.235982 51.383425 C -29.796535 42.13374 -36.799503 22.133645 -33.797917 3.133877 C -29.799605 -13.864194 -21.797626 -27.864117 -7.798691 -37.865124 C 5.203683 -46.865201 19.203057 -48.863461 34.471598 -51.385653 " stroke="#000000" stroke-width="6" stroke-opacity="1" stroke-miterlimit="4"/><path fill="#efefef" d="M 875.992188 694.726562 C 875.992188 694.726562 842.644531 694.726562 842.644531 694.726562 C 813.898438 694.726562 805.875 670.675781 805.65625 657.957031 C 805.65625 657.898438 805.65625 657.855469 805.65625 657.800781 C 805.65625 657.800781 805.660156 613.867188 805.660156 613.867188 C 805.660156 597.386719 809.824219 584.914062 818.042969 576.8125 C 828.25 566.753906 841.128906 567.367188 843.960938 567.652344 C 843.960938 567.652344 872.621094 567.65625 872.621094 567.65625 C 876.503906 567.65625 879.648438 571.175781 879.648438 575.535156 C 879.648438 579.890625 876.5 583.410156 872.621094 583.410156 C 872.621094 583.410156 843.621094 583.410156 843.621094 583.410156 C 843.320312 583.410156 843.023438 583.390625 842.730469 583.347656 C 842.6875 583.347656 833.679688 582.289062 827.230469 588.746094 C 822.25 593.734375 819.71875 602.191406 819.71875 613.878906 C 819.71875 613.878906 819.714844 657.679688 819.714844 657.679688 C 819.734375 658.128906 820.054688 663.605469 822.925781 668.789062 C 826.667969 675.546875 833.308594 678.976562 842.652344 678.980469 C 842.652344 678.980469 876 678.980469 876 678.980469 C 879.882812 678.980469 883.027344 682.503906 883.027344 686.859375 C 883.027344 691.214844 879.878906 694.738281 876 694.738281 C 876 694.738281 875.992188 694.726562 875.992188 694.726562 Z M 875.992188 694.726562 " fill-opacity="1" fill-rule="nonzero"/><g clip-path="url(#6a005865c4)"><path fill="#86492a" d="M 1083.195312 585.761719 C 1083.195312 585.761719 1007.867188 577.410156 1007.867188 577.410156 C 1007.867188 577.410156 954.828125 556.085938 954.828125 556.085938 C 954.828125 556.085938 927.863281 547.847656 924.699219 564.519531 C 924.699219 564.519531 921.203125 572.601562 929.753906 581.148438 C 929.753906 581.148438 917.753906 590.035156 920.910156 602.03125 C 920.910156 602.03125 924.476562 614.636719 932.476562 614.636719 C 932.476562 614.636719 918.378906 626.300781 924.695312 637.847656 C 936.148438 658.796875 964.792969 656.082031 984.953125 656.828125 C 1003.386719 657.507812 1021.8125 658.195312 1040.25 658.875 C 1040.25 658.875 1136.539062 672.097656 1136.863281 672.144531 C 1159.929688 675.308594 1183.949219 661.425781 1189.96875 638.367188 C 1194.25 621.949219 1185.109375 601.863281 1181.066406 585.777344 C 1181.066406 585.777344 1157.707031 564.542969 1157.707031 564.542969 C 1157.707031 564.542969 1090.769531 567.949219 1090.769531 567.949219 C 1090.769531 567.949219 1083.195312 585.769531 1083.195312 585.769531 C 1083.195312 585.769531 1083.195312 585.761719 1083.195312 585.761719 Z M 1083.195312 585.761719 " fill-opacity="1" fill-rule="nonzero"/></g><path stroke-linecap="round" transform="matrix(0.917166, 0.0000502887, -0.0000502887, 0.917166, 944.275687, 583.447791)" fill="none" stroke-linejoin="round" d="M -15.833464 -2.514671 C -15.833464 -2.514671 15.837077 2.513526 15.837077 2.513526 " stroke="#000000" stroke-width="6" stroke-opacity="1" stroke-miterlimit="4"/><path stroke-linecap="round" transform="matrix(0.917166, 0.0000502887, -0.0000502887, 0.917166, 945.640495, 616.218205)" fill="none" stroke-linejoin="round" d="M -14.344419 -1.73631 C -14.344419 -1.73631 14.344704 1.733239 14.344704 1.733239 " stroke="#000000" stroke-width="6" stroke-opacity="1" stroke-miterlimit="4"/><path fill="#be9fff" d="M 1093.308594 436.59375 C 1093.308594 436.59375 1154.554688 462.140625 1181.074219 585.757812 C 1181.074219 585.757812 1122.347656 569.476562 1083.203125 585.753906 C 1083.203125 585.753906 1051.007812 472.582031 1093.320312 436.59375 C 1093.320312 436.59375 1093.308594 436.59375 1093.308594 436.59375 Z M 1093.308594 436.59375 " fill-opacity="1" fill-rule="nonzero"/><path stroke-linecap="round" transform="matrix(0.917166, 0.0000502887, -0.0000502887, 0.917166, 1077.011448, 518.129946)" fill="none" stroke-linejoin="round" d="M 5.643747 -73.738304 C 5.643747 -73.738304 -10.53516 -51.709631 -5.915935 -7.581911 C -5.915935 -7.581911 6.746408 73.739616 6.746408 73.739616 " stroke="#000000" stroke-width="6" stroke-opacity="1" stroke-miterlimit="4"/><path fill="#000000" d="M 950.523438 308.972656 C 950.523438 308.972656 1006.402344 314.054688 1006.402344 314.054688 C 1019.742188 315.265625 1029.570312 327.0625 1028.359375 340.398438 C 1027.148438 353.738281 1015.351562 363.566406 1002.015625 362.355469 C 1002.015625 362.355469 946.132812 357.273438 946.132812 357.273438 C 932.792969 356.0625 922.964844 344.269531 924.175781 330.929688 C 925.390625 317.589844 937.183594 307.761719 950.523438 308.972656 Z M 950.523438 308.972656 " fill-opacity="1" fill-rule="nonzero"/><path fill="#86492a" d="M 974.289062 398.222656 C 974.289062 398.222656 966.828125 397.546875 966.828125 397.546875 C 946.832031 395.730469 932.09375 378.046875 933.910156 358.046875 C 933.910156 358.046875 936.460938 329.980469 936.460938 329.980469 C 938.28125 309.984375 955.964844 295.246094 975.960938 297.0625 C 975.960938 297.0625 983.421875 297.742188 983.421875 297.742188 C 1003.421875 299.558594 1018.15625 317.242188 1016.339844 337.238281 C 1016.339844 337.238281 1013.789062 365.308594 1013.789062 365.308594 C 1011.972656 385.304688 994.289062 400.042969 974.289062 398.222656 Z M 974.289062 398.222656 " fill-opacity="1" fill-rule="nonzero"/><path fill="#efefef" d="M 989.515625 363.59375 C 1001.207031 359.957031 999.332031 369.203125 999.332031 369.203125 C 996.886719 381.304688 981.59375 388.054688 969.894531 387.195312 C 959.699219 386.445312 943.539062 379.414062 944.007812 367.089844 C 944.007812 367.089844 942.84375 357.726562 954.214844 362.246094 C 964.480469 370.75 978.386719 367.0625 989.515625 363.59375 Z M 989.515625 363.59375 " fill-opacity="1" fill-rule="nonzero"/><g mask="url(#86a3aa7d0f)"><g transform="matrix(1, 0, 0, 1, 969, 330)"><g clip-path="url(#d90f7a8c23)"><path stroke-linecap="round" transform="matrix(0.917166, 0.0000502887, -0.0000502887, 0.917166, 13.658512, 13.395589)" fill-opacity="1" fill="#efefef" fill-rule="nonzero" stroke-linejoin="round" d="M 0.00115234 -11.687975 C 6.457866 -11.688329 11.688261 -6.454248 11.688615 -0.0017937 C 11.688969 6.45492 6.454889 11.689574 -0.00182488 11.689928 C -6.454279 11.690282 -11.688934 6.456202 -11.689288 -0.000511876 C -11.689642 -6.457225 -6.455561 -11.69188 0.00115234 -11.687975 Z M 0.00115234 -11.687975 " stroke="#000000" stroke-width="3" stroke-opacity="1" stroke-miterlimit="4"/></g></g></g><g mask="url(#a28a5d0798)"><g transform="matrix(1, 0, 0, 1, 938, 330)"><g clip-path="url(#c6d7109f67)"><path stroke-linecap="round" transform="matrix(0.917166, 0.0000502887, -0.0000502887, 0.917166, 13.227243, 13.302132)" fill-opacity="1" fill="#efefef" fill-rule="nonzero" stroke-linejoin="round" d="M -0.00138328 -11.688294 C 6.45533 -11.688648 11.689985 -6.454568 11.690338 -0.00211331 C 11.690692 6.4546 6.456612 11.689254 -0.000101456 11.689609 C -6.456815 11.689963 -11.691469 6.455882 -11.691823 -0.000831248 C -11.687918 -6.457545 -6.458097 -11.68794 -0.00138328 -11.688294 Z M -0.00138328 -11.688294 " stroke="#000000" stroke-width="3" stroke-opacity="1" stroke-miterlimit="4"/></g></g></g><path stroke-linecap="round" transform="matrix(0.917166, 0.0000502887, -0.0000502887, 0.917166, 966.997806, 344.403576)" fill="none" stroke-linejoin="round" d="M 5.513634 0.658506 C 5.513634 0.658506 -5.513108 -0.661194 -5.513108 -0.661194 " stroke="#000000" stroke-width="3" stroke-opacity="1" stroke-miterlimit="4"/><path stroke-linecap="round" transform="matrix(0.917166, 0.0000502887, -0.0000502887, 0.917166, 982.658501, 343.395588)" fill="none" stroke-linejoin="round" d="M 0.00116412 -11.687974 C 6.457878 -11.688328 11.688273 -6.454248 11.688627 -0.00179344 C 11.688981 6.45492 6.4549 11.689574 -0.0018131 11.689928 C -6.454268 11.690282 -11.688922 6.456202 -11.689276 -0.000511615 C -11.68963 -6.457225 -6.45555 -11.691879 0.00116412 -11.687974 Z M 0.00116412 -11.687974 " stroke="#000000" stroke-width="3" stroke-opacity="1" stroke-miterlimit="4"/><path stroke-linecap="round" transform="matrix(0.917166, 0.0000502887, -0.0000502887, 0.917166, 951.227238, 343.302132)" fill="none" stroke-linejoin="round" d="M -0.00137778 -11.688295 C 6.455336 -11.688649 11.68999 -6.454569 11.690344 -0.00211409 C 11.690698 6.454599 6.456618 11.689254 -0.0000959611 11.689608 C -6.456809 11.689962 -11.691464 6.455881 -11.691818 -0.000832034 C -11.687913 -6.457546 -6.458091 -11.687941 -0.00137778 -11.688295 Z M -0.00137778 -11.688295 " stroke="#000000" stroke-width="3" stroke-opacity="1" stroke-miterlimit="4"/><path stroke-linecap="round" transform="matrix(0.917166, 0.0000502887, -0.0000502887, 0.917166, 1005.84442, 345.50634)" fill="none" stroke-linejoin="round" d="M -13.629745 -1.241289 C -13.629745 -1.241289 3.231902 0.291043 3.231902 0.291043 C 3.231902 0.291043 13.628285 1.24024 13.628285 1.24024 " stroke="#000000" stroke-width="3" stroke-opacity="1" stroke-miterlimit="4"/><path stroke-linecap="round" transform="matrix(0.917166, 0.0000502887, -0.0000502887, 0.917166, 937.543207, 342.52638)" fill="none" stroke-linejoin="round" d="M 3.24089 0.294747 C 3.24089 0.294747 -3.24141 -0.296905 -3.24141 -0.296905 " stroke="#000000" stroke-width="3" stroke-opacity="1" stroke-miterlimit="4"/><path stroke-linecap="round" transform="matrix(0.917166, 0.0000502887, -0.0000502887, 0.917166, 951.96207, 322.791597)" fill="none" stroke-linejoin="round" d="M -8.838637 2.161317 C -8.838637 2.161317 -0.849197 -7.515673 8.840658 2.083685 " stroke="#000000" stroke-width="4" stroke-opacity="1" stroke-miterlimit="4"/><path stroke-linecap="round" transform="matrix(0.917166, 0.0000502887, -0.0000502887, 0.917166, 984.631469, 322.820893)" fill="none" stroke-linejoin="round" d="M -8.840195 2.163447 C -8.840195 2.163447 -0.850756 -7.517803 8.839099 2.081555 " stroke="#000000" stroke-width="4" stroke-opacity="1" stroke-miterlimit="4"/><path fill="#5ac8bd" d="M 475.472656 407.734375 C 481.34375 407.078125 487.066406 409.863281 490.179688 414.882812 C 490.179688 414.882812 533.175781 484.289062 533.175781 484.289062 C 533.695312 485.125 534.289062 485.910156 534.957031 486.628906 C 534.957031 486.628906 555.699219 509.023438 555.699219 509.023438 C 557.492188 510.960938 558.753906 513.328125 559.359375 515.894531 C 559.359375 515.894531 569.003906 556.585938 569.003906 556.585938 C 570.808594 564.214844 566.585938 572.050781 559.160156 574.558594 C 544.070312 579.660156 518.144531 581.191406 496.394531 545.925781 C 496.207031 545.621094 496.007812 545.320312 495.796875 545.03125 C 495.796875 545.03125 435.566406 461.847656 435.566406 461.847656 C 433.816406 459.429688 432.808594 456.546875 432.671875 453.566406 C 430.441406 405.4375 468.757812 406.347656 475.472656 407.734375 Z M 475.472656 407.734375 " fill-opacity="1" fill-rule="nonzero"/><g clip-path="url(#2ce55366b8)"><path fill="#000000" d="M 265.425781 692.679688 C 265.425781 692.679688 518.808594 692.675781 518.808594 692.675781 C 518.808594 692.675781 518.8125 797.617188 518.8125 797.617188 C 518.8125 797.617188 265.429688 797.621094 265.429688 797.621094 C 265.429688 797.621094 265.425781 692.679688 265.425781 692.679688 Z M 265.425781 692.679688 " fill-opacity="1" fill-rule="nonzero"/></g><path fill="#efefef" d="M 485.097656 673.828125 C 485.097656 673.828125 480.503906 564.511719 480.503906 564.511719 C 474.449219 495.898438 456.085938 440.988281 440.070312 404.382812 C 425.523438 399.40625 409.730469 398.441406 409.730469 398.441406 C 400.230469 416.4375 381.015625 434.503906 371.917969 442.476562 C 392.5625 486.417969 420.335938 542.914062 439.671875 572.234375 C 439.671875 572.234375 435.566406 693.285156 435.566406 693.285156 C 435.566406 693.285156 485.257812 692.675781 485.257812 692.675781 C 485.257812 692.675781 485.097656 673.828125 485.097656 673.828125 Z M 485.097656 673.828125 " fill-opacity="1" fill-rule="nonzero"/><path fill="#be9fff" d="M 409.722656 398.441406 C 409.722656 398.441406 392.773438 409.484375 392.773438 409.484375 C 392.773438 409.484375 409.722656 432.570312 409.722656 432.570312 C 409.722656 432.570312 423.746094 418.996094 436.300781 423.644531 C 436.300781 423.644531 425.9375 392.984375 425.9375 392.984375 C 425.9375 392.984375 409.722656 398.449219 409.722656 398.449219 C 409.722656 398.449219 409.722656 398.441406 409.722656 398.441406 Z M 409.722656 398.441406 " fill-opacity="1" fill-rule="nonzero"/><path fill="#000000" d="M 428.273438 366.5 C 428.273438 366.5 425.9375 341.917969 425.9375 341.917969 C 425.9375 341.917969 363.15625 344.523438 363.15625 344.523438 C 363.15625 355.527344 361.53125 364.34375 359.359375 371.222656 C 372 381.144531 398.59375 404.105469 426.660156 372.582031 C 426.660156 372.582031 428.273438 366.5 428.273438 366.5 Z M 428.273438 366.5 " fill-opacity="1" fill-rule="nonzero"/><path fill="#86492a" d="M 359.367188 371.210938 C 358.40625 374.265625 357.332031 376.933594 356.25 379.246094 C 356.25 379.246094 368.714844 398.453125 409.730469 398.449219 C 409.730469 398.449219 429.3125 381.582031 429.3125 381.582031 C 429.3125 381.582031 428.019531 366.265625 428.019531 366.265625 C 413.085938 398.746094 372.007812 381.136719 359.378906 371.210938 C 359.378906 371.210938 359.367188 371.210938 359.367188 371.210938 Z M 359.367188 371.210938 " fill-opacity="1" fill-rule="nonzero"/><path fill="#efefef" d="M 429.304688 381.582031 C 429.304688 381.582031 409.722656 398.449219 409.722656 398.449219 C 409.722656 398.449219 425.507812 399.414062 440.0625 404.394531 C 436.28125 395.753906 432.632812 388.125 429.304688 381.582031 Z M 429.304688 381.582031 " fill-opacity="1" fill-rule="nonzero"/><path fill="#be9fff" d="M 414.535156 414.566406 C 414.535156 414.566406 409.722656 432.578125 409.722656 432.578125 C 409.722656 432.578125 413.207031 464.15625 413.21875 464.238281 C 415.648438 486.277344 425.1875 506.335938 431.324219 527.347656 C 435.746094 542.492188 440.476562 557.542969 445.054688 572.636719 C 452.464844 597.0625 459.875 621.488281 467.277344 645.910156 C 467.40625 646.324219 467.535156 646.746094 467.65625 647.15625 C 467.65625 647.15625 486.394531 684.863281 486.390625 647.15625 C 486.390625 647.15625 477 529.082031 462.917969 489.394531 C 462.917969 489.394531 457.058594 466.191406 448.050781 448.464844 C 448.050781 448.464844 436.292969 423.644531 436.292969 423.644531 C 436.292969 423.644531 424.09375 411.585938 424.09375 411.585938 C 424.09375 411.585938 414.527344 414.566406 414.527344 414.566406 C 414.527344 414.566406 414.535156 414.566406 414.535156 414.566406 Z M 414.535156 414.566406 " fill-opacity="1" fill-rule="nonzero"/><g clip-path="url(#d579a70e0e)"><path fill="#5ac8bd" d="M 439.660156 572.234375 C 410.722656 528.347656 362.890625 423.582031 348.308594 391.152344 C 300.707031 410.605469 266.113281 446.714844 266.113281 446.714844 C 249.355469 461.957031 258.886719 498.332031 258.886719 498.332031 C 269.214844 565.46875 252.691406 698.78125 252.691406 698.78125 C 244.425781 728.789062 257.855469 741.078125 257.855469 741.078125 C 302.273438 808.214844 400.042969 797.628906 400.042969 797.628906 C 439.96875 797.628906 437.582031 764.75 437.582031 764.75 C 437.582031 764.75 435.519531 691.613281 435.519531 691.613281 C 435.519531 691.613281 439.660156 572.234375 439.660156 572.234375 Z M 439.660156 572.234375 " fill-opacity="1" fill-rule="nonzero"/></g><path fill="#efefef" d="M 356.25 379.246094 C 346.894531 379.246094 348.308594 391.152344 348.308594 391.152344 C 353.152344 401.917969 361.652344 420.65625 371.90625 442.484375 C 381.003906 434.515625 400.21875 416.445312 409.722656 398.449219 C 368.707031 398.453125 356.242188 379.246094 356.242188 379.246094 C 356.242188 379.246094 356.25 379.246094 356.25 379.246094 Z M 356.25 379.246094 " fill-opacity="1" fill-rule="nonzero"/><path fill="#5ac8bd" d="M 356.25 379.246094 C 356.25 379.246094 345.28125 374.753906 328.5625 400.46875 C 328.5625 400.46875 335.769531 439.210938 352.300781 455.738281 C 352.300781 455.738281 344.832031 468.78125 344.832031 468.78125 C 344.832031 468.78125 397.472656 547.527344 439.671875 572.234375 C 439.671875 572.234375 390.085938 481.792969 371.917969 442.476562 C 371.917969 442.476562 353.867188 404.046875 348.316406 391.140625 C 348.316406 391.140625 356.257812 379.238281 356.257812 379.238281 C 356.257812 379.238281 356.25 379.246094 356.25 379.246094 Z M 356.25 379.246094 " fill-opacity="1" fill-rule="nonzero"/><path stroke-linecap="round" transform="matrix(0.917166, -0.0000175655, 0.0000175655, 0.917166, 384.116003, 486.352604)" fill="none" stroke-linejoin="round" d="M -60.569065 -93.641677 C -60.569065 -93.641677 -54.581495 -59.777889 -34.687997 -33.379942 C -34.687997 -33.379942 -42.831565 -19.159144 -42.831565 -19.159144 C -42.831565 -19.159144 7.939024 58.939952 60.571648 93.639407 " stroke="#000000" stroke-width="6" stroke-opacity="1" stroke-miterlimit="4"/><g clip-path="url(#499b117e11)"><path fill="#5ac8bd" d="M 533.648438 760.078125 C 519.179688 594.191406 485.09375 410.511719 485.09375 410.511719 C 473.335938 400.203125 461.320312 392.828125 449.269531 387.820312 C 453.984375 395.351562 460.304688 408.015625 464.429688 426.488281 C 464.429688 426.488281 472.742188 429.980469 472.742188 429.980469 C 472.742188 429.980469 496.5625 497.816406 480.503906 564.511719 C 480.503906 564.511719 485.097656 673.828125 485.097656 673.828125 C 485.097656 673.828125 486.136719 797.617188 486.136719 797.617188 C 540.882812 784.960938 533.65625 760.070312 533.65625 760.070312 C 533.65625 760.070312 533.648438 760.078125 533.648438 760.078125 Z M 533.648438 760.078125 " fill-opacity="1" fill-rule="nonzero"/></g><path fill="#5ac8bd" d="M 472.742188 429.980469 C 472.742188 429.980469 464.429688 426.488281 464.429688 426.488281 C 460.292969 408.015625 453.984375 395.351562 449.269531 387.820312 C 438.226562 376.777344 427.96875 368.304688 427.96875 368.304688 C 427.96875 368.304688 428.773438 381.429688 428.773438 381.429688 C 446.730469 415.8125 473.015625 479.710938 480.503906 564.519531 C 496.5625 497.824219 472.742188 429.992188 472.742188 429.992188 C 472.742188 429.992188 472.742188 429.980469 472.742188 429.980469 Z M 472.742188 429.980469 " fill-opacity="1" fill-rule="nonzero"/><path stroke-linecap="round" transform="matrix(0.917166, -0.0000175655, 0.0000175655, 0.917166, 467.667751, 476.165924)" fill="none" stroke-linejoin="round" d="M -20.058023 -96.324995 C -20.058023 -96.324995 -7.78804 -79.194877 -3.529474 -54.164383 C -3.529474 -54.164383 5.533703 -50.356623 5.533703 -50.356623 C 5.533703 -50.356623 31.504101 15.616495 13.993618 96.325078 " stroke="#000000" stroke-width="6" stroke-opacity="1" stroke-miterlimit="4"/><path stroke-linecap="round" transform="matrix(0.917166, -0.0000175655, 0.0000175655, 0.917166, 423.011889, 427.807318)" fill="none" stroke-linejoin="round" d="M -14.489559 5.19289 C -14.489559 5.19289 -3.8715 -8.269751 14.489175 -4.538475 " stroke="#000000" stroke-width="6" stroke-opacity="1" stroke-miterlimit="4"/><path stroke-linecap="round" transform="matrix(0.917166, -0.0000175655, 0.0000175655, 0.917166, 500.179013, 502.061491)" fill="none" stroke-linejoin="round" d="M -11.386586 -71.389244 C -11.386586 -71.389244 11.383798 71.391445 11.383798 71.391445 " stroke="#000000" stroke-width="6" stroke-opacity="1" stroke-miterlimit="4"/><path stroke-linecap="round" transform="matrix(0.917166, -0.0000175655, 0.0000175655, 0.917166, 405.984562, 420.467615)" fill="none" stroke-linejoin="round" d="M -37.156579 24.004508 C -37.156579 24.004508 -3.995145 -2.264651 4.076163 -24.006926 C 4.076163 -24.006926 37.156048 -17.524024 37.156048 -17.524024 " stroke="#000000" stroke-width="6" stroke-opacity="1" stroke-miterlimit="4"/><path fill="#86492a" d="M 509.695312 656.714844 C 509.695312 656.714844 521.4375 647.15625 521.4375 647.15625 C 521.4375 647.15625 551.742188 656.710938 551.742188 656.710938 C 551.742188 656.710938 599.78125 666.597656 574.769531 691.609375 C 574.769531 691.609375 584.785156 705.589844 566.765625 723.609375 C 566.765625 723.609375 573.476562 761.175781 526.722656 749.640625 C 526.722656 749.640625 500.527344 738.101562 500.527344 738.101562 C 500.527344 738.101562 455.628906 662.722656 455.628906 662.722656 C 455.628906 662.722656 509.695312 656.714844 509.695312 656.714844 Z M 509.695312 656.714844 " fill-opacity="1" fill-rule="nonzero"/><path stroke-linecap="round" transform="matrix(0.917166, -0.0000175655, 0.0000175655, 0.917166, 571.799497, 690.505473)" fill="none" stroke-linejoin="round" d="M 3.251029 1.203664 C 3.251029 1.203664 -3.248229 -1.207081 -3.248229 -1.207081 " stroke="#000000" stroke-width="6" stroke-opacity="1" stroke-miterlimit="4"/><path stroke-linecap="round" transform="matrix(0.917166, -0.0000175655, 0.0000175655, 0.917166, 562.600946, 721.606736)" fill="none" stroke-linejoin="round" d="M 4.540773 2.183596 C 4.540773 2.183596 -4.539429 -2.186359 -4.539429 -2.186359 " stroke="#000000" stroke-width="6" stroke-opacity="1" stroke-miterlimit="4"/><path fill="#be9fff" d="M 489.683594 632.894531 C 489.683594 632.894531 521.445312 647.164062 521.445312 647.164062 C 521.445312 647.164062 527.636719 692.4375 500.527344 738.113281 C 500.527344 738.113281 470.167969 717.835938 470.167969 717.835938 C 470.167969 717.835938 489.683594 632.90625 489.683594 632.90625 C 489.683594 632.90625 489.683594 632.894531 489.683594 632.894531 Z M 489.683594 632.894531 " fill-opacity="1" fill-rule="nonzero"/><g clip-path="url(#56ffe8bd71)"><path fill="#5ac8bd" d="M 292.484375 614.628906 C 292.484375 614.628906 257.789062 573.742188 250 499.351562 C 250 499.351562 242.121094 467.800781 266.113281 446.722656 C 266.113281 446.722656 317.894531 415.492188 344.988281 497.726562 C 344.988281 497.726562 374.25 577.921875 374.25 577.921875 C 374.25 577.921875 317.613281 559.222656 292.484375 614.628906 Z M 292.484375 614.628906 " fill-opacity="1" fill-rule="nonzero"/></g><path fill="#5ac8bd" d="M 319.714844 549.316406 C 319.714844 549.316406 374.25 577.921875 374.25 577.921875 C 374.25 577.921875 504.046875 632.894531 504.046875 632.894531 C 504.046875 632.894531 509.285156 686.789062 479.964844 738.105469 C 479.964844 738.105469 351.140625 695.375 292.492188 614.628906 C 292.492188 614.628906 292.492188 556.617188 292.492188 556.617188 C 292.492188 556.617188 319.722656 549.328125 319.722656 549.328125 C 319.722656 549.328125 319.714844 549.316406 319.714844 549.316406 Z M 319.714844 549.316406 " fill-opacity="1" fill-rule="nonzero"/><path stroke-linecap="round" transform="matrix(0.917166, -0.0000175655, 0.0000175655, 0.917166, 349.294148, 637.841532)" fill="none" stroke-linejoin="round" d="M -94.869824 -89.149746 C -94.869824 -89.149746 -81.770851 7.518068 94.871512 89.150324 " stroke="#000000" stroke-width="6" stroke-opacity="1" stroke-miterlimit="4"/><path stroke-linecap="round" transform="matrix(0.917166, -0.0000175655, 0.0000175655, 0.917166, 440.130512, 605.82515)" fill="none" stroke-linejoin="round" d="M -69.687694 -29.517537 C -62.80939 -26.599959 -55.931087 -23.690899 -49.052784 -20.773321 C -37.647152 -15.947603 -26.245778 -11.117627 -14.844405 -6.287651 C -2.186624 -0.92527 10.471158 4.437111 23.128939 9.795234 C 33.589071 14.229101 44.053462 18.658709 54.513594 23.088317 C 59.500896 25.200899 64.483939 27.313481 69.471241 29.426063 C 69.543645 29.455878 69.616048 29.485693 69.688451 29.515508 " stroke="#000000" stroke-width="6" stroke-opacity="1" stroke-miterlimit="4"/><path stroke-linecap="round" transform="matrix(0.917166, -0.0000175655, 0.0000175655, 0.917166, 332.973445, 508.337154)" fill="none" stroke-linejoin="round" d="M -44.148721 -73.53034 C -14.81678 -67.920615 2.180555 -40.917938 12.180296 -14.920531 C 23.180837 15.080398 33.18478 44.080433 44.147 73.527686 " stroke="#000000" stroke-width="6" stroke-opacity="1" stroke-miterlimit="4"/><path stroke-linecap="round" transform="matrix(0.917166, -0.0000175655, 0.0000175655, 0.917166, 343.831338, 581.235999)" fill="none" stroke-linejoin="round" d="M 33.166015 -3.612806 C 33.166015 -3.612806 -3.947092 -14.993687 -33.16456 6.607634 " stroke="#000000" stroke-width="6" stroke-opacity="1" stroke-miterlimit="4"/><path fill="#86492a" d="M 636.800781 425.589844 C 636.800781 425.589844 639.804688 407.191406 639.804688 407.191406 C 639.804688 407.191406 644.214844 380.226562 652.125 361.835938 C 655.003906 355.148438 665.835938 343.472656 671.300781 352.917969 C 674.566406 358.566406 671.984375 369.949219 670.984375 376.058594 C 670.984375 376.058594 697.648438 339.453125 697.648438 339.453125 C 697.648438 339.453125 708.875 322.417969 716.800781 330.339844 C 716.800781 330.339844 729.109375 336.273438 710.648438 360.378906 C 710.648438 360.378906 731.5 328.734375 744.839844 342.066406 C 744.839844 342.066406 757.515625 350.558594 731.167969 376.914062 C 731.167969 376.914062 748.859375 360.953125 759.894531 371.984375 C 759.894531 371.984375 770.835938 383.289062 741.4375 405.085938 C 741.4375 405.085938 751.6875 397.757812 754.433594 407.183594 C 754.433594 407.183594 764.917969 421.296875 727.4375 446.09375 C 727.4375 446.09375 689.957031 470.890625 689.957031 470.890625 C 689.957031 470.890625 666.21875 464.390625 666.21875 464.390625 C 666.21875 464.390625 636.808594 425.589844 636.808594 425.589844 C 636.808594 425.589844 636.800781 425.589844 636.800781 425.589844 Z M 636.800781 425.589844 " fill-opacity="1" fill-rule="nonzero"/><path stroke-linecap="round" transform="matrix(0.917166, -0.000134759, 0.000134759, 0.917166, 704.991883, 368.212413)" fill="none" stroke-linejoin="round" d="M 6.168687 -8.548607 C 6.168687 -8.548607 -6.168022 8.549649 -6.168022 8.549649 " stroke="#000000" stroke-width="6" stroke-opacity="1" stroke-miterlimit="4"/><path stroke-linecap="round" transform="matrix(0.917166, -0.000134759, 0.000134759, 0.917166, 724.323714, 385.470646)" fill="none" stroke-linejoin="round" d="M 7.455253 -9.34106 C 7.455253 -9.34106 -7.454152 9.341184 -7.454152 9.341184 " stroke="#000000" stroke-width="6" stroke-opacity="1" stroke-miterlimit="4"/><path stroke-linecap="round" transform="matrix(0.917166, -0.000134759, 0.000134759, 0.917166, 732.879929, 410.159471)" fill="none" stroke-linejoin="round" d="M 9.318491 -5.538903 C 9.318491 -5.538903 -9.320722 5.540396 -9.320722 5.540396 " stroke="#000000" stroke-width="6" stroke-opacity="1" stroke-miterlimit="4"/><path fill="#be9fff" d="M 614.339844 425.59375 C 614.339844 425.59375 639.804688 407.191406 639.804688 407.191406 C 639.804688 407.191406 659.53125 450.046875 689.9375 470.890625 C 689.9375 470.890625 669.394531 485.007812 669.394531 485.007812 C 669.394531 485.007812 614.328125 425.605469 614.328125 425.605469 C 614.328125 425.605469 614.339844 425.59375 614.339844 425.59375 Z M 614.339844 425.59375 " fill-opacity="1" fill-rule="nonzero"/><path fill="#5ac8bd" d="M 526.066406 486.328125 C 526.066406 486.328125 533.132812 485.03125 533.132812 485.03125 C 533.132812 485.03125 599.546875 427.722656 623.371094 412.074219 C 623.371094 412.074219 643.921875 457.746094 680.90625 485.007812 C 680.90625 485.007812 599.097656 553.585938 570.988281 567.863281 C 533.148438 591.75 513.296875 564.398438 510.625 543.679688 C 510.625 543.679688 510.617188 501.445312 510.617188 501.445312 C 512.207031 493.730469 518.316406 487.75 526.066406 486.328125 Z M 526.066406 486.328125 " fill-opacity="1" fill-rule="nonzero"/><path stroke-linecap="round" transform="matrix(0.917166, -0.000134759, 0.000134759, 0.917166, 541.192587, 512.086506)" fill="none" stroke-linejoin="round" d="M -7.893306 -28.941996 C -7.893306 -28.941996 4.873881 -19.191165 7.89499 28.940756 " stroke="#000000" stroke-width="6" stroke-opacity="1" stroke-miterlimit="4"/><path fill="#efefef" d="M 349.132812 300.804688 C 349.132812 300.804688 413.972656 295.773438 413.972656 295.773438 C 427.640625 294.714844 439.578125 304.933594 440.636719 318.601562 C 440.636719 318.601562 440.636719 318.609375 440.636719 318.609375 C 441.695312 332.277344 431.476562 344.214844 417.8125 345.273438 C 417.8125 345.273438 352.96875 350.300781 352.96875 350.300781 C 339.304688 351.359375 327.367188 341.140625 326.304688 327.476562 C 326.304688 327.476562 326.304688 327.46875 326.304688 327.46875 C 325.246094 313.800781 335.464844 301.863281 349.132812 300.804688 Z M 349.132812 300.804688 " fill-opacity="1" fill-rule="nonzero"/><path fill="#86492a" d="M 398.726562 378.460938 C 398.726562 378.460938 391.695312 379.007812 391.695312 379.007812 C 372.855469 380.46875 356.394531 366.378906 354.933594 347.535156 C 354.933594 347.535156 352.882812 321.082031 352.882812 321.082031 C 351.421875 302.242188 365.511719 285.78125 384.351562 284.320312 C 384.351562 284.320312 391.382812 283.773438 391.382812 283.773438 C 410.226562 282.3125 426.6875 296.402344 428.148438 315.246094 C 428.148438 315.246094 430.199219 341.699219 430.199219 341.699219 C 431.660156 360.542969 417.570312 377 398.726562 378.460938 Z M 398.726562 378.460938 " fill-opacity="1" fill-rule="nonzero"/><path fill="#efefef" d="M 381.800781 344.582031 C 392.402344 347.433594 405.609375 350.394531 414.957031 342.011719 C 425.484375 337.34375 424.742188 346.195312 424.742188 346.195312 C 425.640625 357.757812 410.691406 364.976562 401.136719 366.0625 C 390.167969 367.300781 375.539062 361.523438 372.785156 350.222656 C 372.785156 350.222656 370.683594 341.59375 381.808594 344.59375 C 381.808594 344.59375 381.800781 344.582031 381.800781 344.582031 Z M 381.800781 344.582031 " fill-opacity="1" fill-rule="nonzero"/><path fill="#efefef" d="M 349.761719 334.257812 C 349.761719 334.257812 360.203125 337.988281 359.164062 324.65625 C 359.164062 324.65625 356.851562 307.859375 363.820312 299.714844 C 363.820312 299.714844 357.925781 300.175781 357.925781 300.175781 C 357.925781 300.175781 345.644531 313.941406 345.644531 313.941406 C 345.644531 313.941406 349.753906 334.265625 349.753906 334.265625 C 349.753906 334.265625 349.761719 334.257812 349.761719 334.257812 Z M 349.761719 334.257812 " fill-opacity="1" fill-rule="nonzero"/><path stroke-linecap="round" transform="matrix(0.917166, -0.0000678543, 0.0000678543, 0.917166, 391.070377, 364.141497)" fill="none" stroke-linejoin="round" d="M -41.545945 -15.098083 C -30.926647 22.23324 29.538864 24.435381 41.543081 -5.65389 " stroke="#efefef" stroke-width="6" stroke-opacity="1" stroke-miterlimit="4"/><path fill="#000000" d="M 379.386719 323.800781 C 381.855469 323.800781 383.855469 325.800781 383.855469 328.265625 C 383.855469 330.734375 381.855469 332.734375 379.386719 332.734375 C 376.921875 332.734375 374.921875 330.734375 374.921875 328.265625 C 374.921875 325.800781 376.921875 323.800781 379.386719 323.800781 Z M 379.386719 323.800781 " fill-opacity="1" fill-rule="nonzero"/><path fill="#000000" d="M 414.863281 321.046875 C 417.332031 321.046875 419.328125 323.042969 419.328125 325.511719 C 419.332031 327.980469 417.332031 329.980469 414.863281 329.980469 C 412.398438 329.980469 410.398438 327.980469 410.398438 325.511719 C 410.398438 323.046875 412.394531 321.046875 414.863281 321.046875 Z M 414.863281 321.046875 " fill-opacity="1" fill-rule="nonzero"/><path stroke-linecap="round" transform="matrix(0.917166, -0.0000678543, 0.0000678543, 0.917166, 413.890113, 311.234976)" fill="none" stroke-linejoin="round" d="M 8.961505 1.145692 C 8.961505 1.145692 0.0607766 -8.003397 -8.960662 2.537074 " stroke="#000000" stroke-width="4" stroke-opacity="1" stroke-miterlimit="4"/><path stroke-linecap="round" transform="matrix(0.917166, -0.0000678543, 0.0000678543, 0.917166, 379.469109, 313.906439)" fill="none" stroke-linejoin="round" d="M 8.960557 1.14614 C 8.960557 1.14614 0.0598276 -8.002949 -8.961611 2.537522 " stroke="#000000" stroke-width="4" stroke-opacity="1" stroke-miterlimit="4"/></svg>